<svg width="39" height="47" viewBox="0 0 39 47" fill="none" xmlns="http://www.w3.org/2000/svg">
<g id="Star">
<g id="Bg">
<path id="Rectangle 1028" d="M11.7164 20.3782C10.2727 19.1277 9.55085 18.5024 9.08986 17.8089C8.0263 16.2091 7.77508 14.2029 8.41132 12.3902C8.6871 11.6045 9.2325 10.8205 10.3233 9.2526C11.4141 7.68468 11.9595 6.90072 12.6003 6.36895C14.0787 5.14211 16.0471 4.68008 17.9169 5.121C18.7274 5.31212 19.5646 5.77153 21.2391 6.69036L26.644 9.6561C29.2632 11.0933 30.5728 11.8118 31.3418 12.783C32.4733 14.2119 32.9096 16.0706 32.532 17.8537C32.2754 19.0656 31.4223 20.2918 29.7162 22.7443C28.01 25.1967 27.1569 26.4229 26.1098 27.0849C24.5693 28.059 22.6749 28.2962 20.9417 27.7321C19.7637 27.3487 18.6346 26.3707 16.3764 24.4147L11.7164 20.3782Z" fill="url(#paint0_radial_1052_2473)"/>
<g id="Rectangle 1029" opacity="0.5" filter="url(#filter0_f_1052_2473)">
<path d="M14.4653 18.6315C12.5498 16.9724 12.1946 14.1355 13.6418 12.0553C15.089 9.97506 17.8724 9.32173 20.094 10.5408L23.2888 12.2938C26.0721 13.821 26.9178 17.4239 25.1047 20.03C23.2916 22.6362 19.6195 23.096 17.2197 21.0174L14.4653 18.6315Z" fill="#3D03B7"/>
</g>
</g>
<g id="Icon">
<g id="Fill 1" filter="url(#filter1_b_1052_2473)">
<mask id="path-3-outside-1_1052_2473" maskUnits="userSpaceOnUse" x="-0.000152588" y="12.0898" width="39" height="35" fill="black">
<rect fill="white" x="-0.000152588" y="12.0898" width="39" height="35"/>
<path d="M36.1957 32.2444C34.6947 32.2444 33.4733 31.0342 33.4733 29.5469C33.4733 28.0577 34.6947 26.8475 36.1957 26.8475C36.5596 26.8475 36.9088 26.7044 37.1648 26.4508C37.4226 26.1953 37.567 25.8493 37.567 25.4888L37.5652 20.5937C37.5652 16.4559 34.1663 13.0898 29.9903 13.0898H8.57656C4.40059 13.0898 1.00168 16.4559 1.00168 20.5937L0.999847 25.6464C0.999847 26.0069 1.14429 26.3529 1.40209 26.6084C1.65806 26.862 2.00727 27.0051 2.37112 27.0051C3.92339 27.0051 5.09354 28.0976 5.09354 29.5469C5.09354 31.0342 3.8722 32.2444 2.37112 32.2444C1.61418 32.2444 0.999847 32.8531 0.999847 33.6032V38.4946C0.999847 42.6324 4.39694 46.0003 8.57474 46.0003H29.9921C34.1699 46.0003 37.567 42.6324 37.567 38.4946V33.6032C37.567 32.8531 36.9527 32.2444 36.1957 32.2444Z"/>
</mask>
<path d="M36.1957 32.2444C34.6947 32.2444 33.4733 31.0342 33.4733 29.5469C33.4733 28.0577 34.6947 26.8475 36.1957 26.8475C36.5596 26.8475 36.9088 26.7044 37.1648 26.4508C37.4226 26.1953 37.567 25.8493 37.567 25.4888L37.5652 20.5937C37.5652 16.4559 34.1663 13.0898 29.9903 13.0898H8.57656C4.40059 13.0898 1.00168 16.4559 1.00168 20.5937L0.999847 25.6464C0.999847 26.0069 1.14429 26.3529 1.40209 26.6084C1.65806 26.862 2.00727 27.0051 2.37112 27.0051C3.92339 27.0051 5.09354 28.0976 5.09354 29.5469C5.09354 31.0342 3.8722 32.2444 2.37112 32.2444C1.61418 32.2444 0.999847 32.8531 0.999847 33.6032V38.4946C0.999847 42.6324 4.39694 46.0003 8.57474 46.0003H29.9921C34.1699 46.0003 37.567 42.6324 37.567 38.4946V33.6032C37.567 32.8531 36.9527 32.2444 36.1957 32.2444Z" fill="#3D03B7" fill-opacity="0.35"/>
<path d="M36.1957 32.7155C36.4559 32.7155 36.6668 32.5046 36.6668 32.2444C36.6668 31.9842 36.4559 31.7733 36.1957 31.7733V32.7155ZM37.1648 26.4508L36.8332 26.1161L37.1648 26.4508ZM37.567 25.4888H38.0381V25.4886L37.567 25.4888ZM37.5652 20.5937H37.0941V20.5939L37.5652 20.5937ZM1.00168 20.5937L1.47277 20.5939V20.5937H1.00168ZM0.999847 25.6464L0.528749 25.6462V25.6464H0.999847ZM1.40209 26.6084L1.73367 26.2737L1.40209 26.6084ZM36.1957 31.7733C35.9356 31.7733 35.7246 31.9842 35.7246 32.2444C35.7246 32.5046 35.9356 32.7155 36.1957 32.7155V31.7733ZM36.1957 31.7733C34.9508 31.7733 33.9444 30.77 33.9444 29.5469H33.0022C33.0022 31.2985 34.4386 32.7155 36.1957 32.7155V31.7733ZM33.9444 29.5469C33.9444 28.3217 34.951 27.3186 36.1957 27.3186V26.3764C34.4384 26.3764 33.0022 27.7937 33.0022 29.5469H33.9444ZM36.1957 27.3186C36.6826 27.3186 37.1513 27.1273 37.4964 26.7854L36.8332 26.1161C36.6663 26.2815 36.4366 26.3764 36.1957 26.3764V27.3186ZM37.4964 26.7854C37.843 26.4419 38.0381 25.9756 38.0381 25.4888H37.0959C37.0959 25.723 37.0021 25.9487 36.8332 26.1161L37.4964 26.7854ZM38.0381 25.4886L38.0363 20.5935L37.0941 20.5939L37.0959 25.489L38.0381 25.4886ZM38.0363 20.5937C38.0363 16.1915 34.4222 12.6187 29.9903 12.6187V13.5609C33.9103 13.5609 37.0941 16.7203 37.0941 20.5937H38.0363ZM29.9903 12.6187H8.57656V13.5609H29.9903V12.6187ZM8.57656 12.6187C4.14465 12.6187 0.530578 16.1915 0.530578 20.5937H1.47277C1.47277 16.7203 4.65654 13.5609 8.57656 13.5609V12.6187ZM0.530578 20.5935L0.528749 25.6462L1.47095 25.6466L1.47277 20.5939L0.530578 20.5935ZM0.528749 25.6464C0.528749 26.1332 0.723848 26.5995 1.0705 26.943L1.73367 26.2737C1.56473 26.1063 1.47095 25.8806 1.47095 25.6464H0.528749ZM1.0705 26.943C1.41551 27.2849 1.88424 27.4762 2.37112 27.4762V26.534C2.13031 26.534 1.9006 26.4391 1.73367 26.2737L1.0705 26.943ZM2.37112 27.4762C3.69421 27.4762 4.62244 28.3877 4.62244 29.5469H5.56464C5.56464 27.8074 4.15257 26.534 2.37112 26.534V27.4762ZM4.62244 29.5469C4.62244 30.77 3.6161 31.7733 2.37112 31.7733V32.7155C4.12829 32.7155 5.56464 31.2985 5.56464 29.5469H4.62244ZM2.37112 31.7733C1.35808 31.7733 0.528749 32.5889 0.528749 33.6032H1.47095C1.47095 33.1174 1.87027 32.7155 2.37112 32.7155V31.7733ZM0.528749 33.6032V38.4946H1.47095V33.6032H0.528749ZM0.528749 38.4946C0.528749 42.8966 4.14077 46.4714 8.57474 46.4714V45.5292C4.65311 45.5292 1.47095 42.3683 1.47095 38.4946H0.528749ZM8.57474 46.4714H29.9921V45.5292H8.57474V46.4714ZM29.9921 46.4714C34.4261 46.4714 38.0381 42.8966 38.0381 38.4946H37.0959C37.0959 42.3683 33.9138 45.5292 29.9921 45.5292V46.4714ZM38.0381 38.4946V33.6032H37.0959V38.4946H38.0381ZM38.0381 33.6032C38.0381 32.5889 37.2088 31.7733 36.1957 31.7733V32.7155C36.6966 32.7155 37.0959 33.1174 37.0959 33.6032H38.0381Z" fill="url(#paint1_linear_1052_2473)" mask="url(#path-3-outside-1_1052_2473)"/>
</g>
<g id="Fill 4" filter="url(#filter2_bd_1052_2473)">
<path d="M25.5556 28.7926L23.4 30.8916L23.9101 33.859C23.9978 34.3728 23.7912 34.8792 23.3689 35.1827C22.9502 35.4899 22.4035 35.5283 21.9428 35.2833L19.2825 33.8846L16.6168 35.2851C16.4193 35.3893 16.2035 35.4442 15.9896 35.4442C15.7099 35.4442 15.4338 35.3564 15.1961 35.1846C14.7756 34.8792 14.569 34.3728 14.6568 33.859L15.165 30.8916L13.0094 28.7926C12.6364 28.4306 12.5066 27.8986 12.6675 27.4031C12.8302 26.9094 13.2507 26.5584 13.7645 26.4852L16.7374 26.0519L18.0703 23.3514C18.3025 22.887 18.7669 22.5981 19.2825 22.5981H19.2862C19.8036 22.6 20.268 22.8889 20.4965 23.3533L21.8294 26.0519L24.8078 26.4871C25.3161 26.5584 25.7366 26.9094 25.8975 27.4031C26.0602 27.8986 25.9304 28.4306 25.5556 28.7926Z" fill="url(#paint2_linear_1052_2473)"/>
<path d="M25.5229 28.7587L25.5227 28.7589L23.3671 30.8578L23.3493 30.8751L23.3535 30.8996L23.8636 33.8669C23.9484 34.3631 23.749 34.8515 23.3414 35.1445L23.341 35.1447C22.937 35.4411 22.4098 35.4783 21.9649 35.2417L21.9647 35.2416L19.3044 33.8429L19.2825 33.8314L19.2606 33.8429L16.5948 35.2434L16.5948 35.2435C16.4037 35.3443 16.1955 35.3971 15.9896 35.3971C15.7199 35.3971 15.4535 35.3125 15.2238 35.1464C14.8178 34.8516 14.6185 34.363 14.7032 33.867C14.7032 33.8669 14.7032 33.8669 14.7032 33.8669L15.2115 30.8995L15.2157 30.8751L15.1979 30.8578L13.0423 28.7589L13.0422 28.7588C12.6823 28.4095 12.5569 27.8963 12.7123 27.4177C12.8694 26.9412 13.2751 26.6025 13.7712 26.5319L13.7713 26.5319L16.7442 26.0985L16.7687 26.095L16.7797 26.0728L18.1124 23.3725C18.1125 23.3725 18.1125 23.3724 18.1125 23.3724C18.3368 22.9238 18.785 22.6453 19.2825 22.6453H19.2861C19.7857 22.6471 20.2337 22.9258 20.4543 23.3741L20.4543 23.3741L21.7872 26.0728L21.7981 26.095L21.8226 26.0985L24.801 26.5337L24.8013 26.5337C25.2917 26.6025 25.6974 26.9411 25.8527 27.4177L25.8527 27.4178C26.0099 27.8962 25.8846 28.4094 25.5229 28.7587Z" stroke="url(#paint3_linear_1052_2473)" stroke-opacity="0.5" stroke-width="0.0942197"/>
</g>
</g>
</g>
<defs>
<filter id="filter0_f_1052_2473" x="3.332" y="0.507234" width="32.1528" height="31.237" filterUnits="userSpaceOnUse" color-interpolation-filters="sRGB">
<feFlood flood-opacity="0" result="BackgroundImageFix"/>
<feBlend mode="normal" in="SourceGraphic" in2="BackgroundImageFix" result="shape"/>
<feGaussianBlur stdDeviation="4.71098" result="effect1_foregroundBlur_1052_2473"/>
</filter>
<filter id="filter1_b_1052_2473" x="-10.7776" y="1.31229" width="60.1221" height="56.4653" filterUnits="userSpaceOnUse" color-interpolation-filters="sRGB">
<feFlood flood-opacity="0" result="BackgroundImageFix"/>
<feGaussianBlur in="BackgroundImageFix" stdDeviation="5.65318"/>
<feComposite in2="SourceAlpha" operator="in" result="effect1_backgroundBlur_1052_2473"/>
<feBlend mode="normal" in="SourceGraphic" in2="effect1_backgroundBlur_1052_2473" result="shape"/>
</filter>
<filter id="filter2_bd_1052_2473" x="5.5332" y="15.5317" width="27.4997" height="26.9791" filterUnits="userSpaceOnUse" color-interpolation-filters="sRGB">
<feFlood flood-opacity="0" result="BackgroundImageFix"/>
<feGaussianBlur in="BackgroundImageFix" stdDeviation="3.53324"/>
<feComposite in2="SourceAlpha" operator="in" result="effect1_backgroundBlur_1052_2473"/>
<feColorMatrix in="SourceAlpha" type="matrix" values="0 0 0 0 0 0 0 0 0 0 0 0 0 0 0 0 0 0 127 0" result="hardAlpha"/>
<feOffset dx="2.35549" dy="2.35549"/>
<feGaussianBlur stdDeviation="2.35549"/>
<feColorMatrix type="matrix" values="0 0 0 0 0.239216 0 0 0 0 0.0117647 0 0 0 0 0.717647 0 0 0 0.5 0"/>
<feBlend mode="normal" in2="effect1_backgroundBlur_1052_2473" result="effect2_dropShadow_1052_2473"/>
<feBlend mode="normal" in="SourceGraphic" in2="effect2_dropShadow_1052_2473" result="shape"/>
</filter>
<radialGradient id="paint0_radial_1052_2473" cx="0" cy="0" r="1" gradientUnits="userSpaceOnUse" gradientTransform="translate(20.0197 15.9985) rotate(34.8264) scale(11.8122 10.0529)">
<stop stop-color="#3D03B7" stop-opacity="0"/>
<stop offset="1" stop-color="#3D03B7"/>
</radialGradient>
<linearGradient id="paint1_linear_1052_2473" x1="6.82074" y1="16.924" x2="33.5239" y2="47.1482" gradientUnits="userSpaceOnUse">
<stop stop-color="white" stop-opacity="0.25"/>
<stop offset="1" stop-color="white" stop-opacity="0"/>
</linearGradient>
<linearGradient id="paint2_linear_1052_2473" x1="25.0188" y1="24.9179" x2="10.1307" y2="25.423" gradientUnits="userSpaceOnUse">
<stop stop-color="white"/>
<stop offset="1" stop-color="white" stop-opacity="0.2"/>
</linearGradient>
<linearGradient id="paint3_linear_1052_2473" x1="14.0396" y1="26.9074" x2="25.3898" y2="26.9726" gradientUnits="userSpaceOnUse">
<stop stop-color="white"/>
<stop offset="1" stop-color="white" stop-opacity="0"/>
</linearGradient>
</defs>
</svg>
