<svg width="547" height="175" viewBox="0 0 547 175" fill="none" xmlns="http://www.w3.org/2000/svg">
<path fill-rule="evenodd" clip-rule="evenodd" d="M1.29405 109.676C1.86278 134.282 18.3566 162.071 80.407 188.666C147.69 217.535 183.294 231.458 250.634 239.812C198.536 254.303 131.196 245.494 67.4964 239.812C58.7719 239.628 50.1753 241.93 42.7121 246.448C35.2488 250.967 29.2274 257.515 25.3522 265.327C13.9772 288.741 24.4421 318.064 51.5714 330.111C75.0608 340.568 123.006 342.159 148.259 341.988C197.626 341.988 314.504 341.988 411.874 341.988C452.236 341.883 490.909 325.793 519.417 297.244C547.925 268.696 563.942 230.018 563.957 189.689C563.957 86.1487 563.957 -40.805 563.957 -91.3819C563.957 -98.4286 564.526 -124.456 561.512 -133.548C558.386 -143.06 552.499 -151.429 544.601 -157.588C536.702 -163.748 527.148 -167.421 517.154 -168.14C507.16 -168.859 497.177 -166.591 488.477 -161.626C479.776 -156.66 472.751 -149.221 468.294 -140.254C460.843 -125.251 458.454 -81.153 458.056 -52.398C457.203 8.63526 462.948 35.174 462.948 35.174C407.381 -21.654 344.363 -110.647 320.078 -180.375C311.717 -204.299 296.133 -217.824 266.9 -218.961C237.666 -220.097 218.158 -196.23 213.267 -180.261C209.712 -168.54 210.132 -155.974 214.461 -144.516C218.329 -133.889 269.118 -21.029 322.523 35.2876C232.092 -22.7338 181.815 -80.1301 123.461 -168.157C102.133 -200.264 58.5671 -210.834 25.9778 -185.489C4.53595 -168.838 -5.9859 -141.788 3.51214 -102.861C7.55029 -86.0971 24.499 -59.3311 40.9358 -41.2598C96.6732 20.1145 201.38 94.7297 287.545 137.578C204.622 124.28 155.254 100.128 86.6064 61.7694C78.0641 56.5314 68.3378 53.5304 58.327 53.0437C48.3163 52.557 38.3443 54.6003 29.3334 58.9849C20.2952 63.8677 12.8492 71.2393 7.87902 80.2245C2.90886 89.2097 0.62346 99.4312 1.29405 109.676Z" fill="url(#paint0_radial_1052_4284)"/>
<defs>
<radialGradient id="paint0_radial_1052_4284" cx="0" cy="0" r="1" gradientUnits="userSpaceOnUse" gradientTransform="translate(392.588 141.38) rotate(-168.499) scale(400.632 398.497)">
<stop offset="0.129686" stop-color="#00C395" stop-opacity="0"/>
<stop offset="1" stop-color="#00C395"/>
</radialGradient>
</defs>
</svg>
