<svg width="45" height="46" viewBox="0 0 45 46" fill="none" xmlns="http://www.w3.org/2000/svg">
<g id="&#208;&#155;&#208;&#190;&#208;&#179;&#208;&#190;&#209;&#130;&#208;&#184;&#208;&#191; &#208;&#190;&#209;&#129;&#208;&#189;&#208;&#190;&#208;&#178;&#208;&#189;&#208;&#190;&#208;&#185;">
<g id="Group 27">
<path id="Vector" fill-rule="evenodd" clip-rule="evenodd" d="M37.1918 29.4499C36.0757 29.4499 35.1691 30.7198 35.1691 32.2862C35.1691 33.8526 36.0802 35.1248 37.1918 35.1248C38.3033 35.1248 39.2144 33.8526 39.2144 32.2862C39.2144 30.7198 38.3079 29.4499 37.1918 29.4499ZM29.7504 29.4636C28.6343 29.4636 27.7277 30.7335 27.7277 32.2999C27.7277 33.8663 28.6388 35.1385 29.7504 35.1385C30.8619 35.1385 31.7753 33.8663 31.7753 32.2999C31.7753 30.7335 30.8665 29.4636 29.7504 29.4636ZM36.4743 37.8814C36.4743 39.0602 35.1874 40.0178 33.5998 40.0178C32.0122 40.0178 30.7275 39.0602 30.7275 37.8814H36.4743ZM26.1037 1.0864C28.0671 1.13428 30.2811 2.45441 32.3971 7.39066C34.6954 12.751 35.8137 15.5987 36.4766 20.9568C37.6314 16.8072 36.9321 11.4263 36.4766 6.36465C36.3604 5.081 37.2624 3.62862 38.5083 3.00618C40.3761 2.09417 42.7108 2.93778 43.672 5.09924C44.5033 6.96885 44.6286 10.7993 44.6149 12.7806C44.5922 16.7137 44.5967 26.0253 44.6149 33.7842C44.6149 35.3794 44.301 36.9589 43.6911 38.4327C43.0812 39.9064 42.1872 41.2454 41.0603 42.3733C39.9334 43.5012 38.5955 44.3957 37.1231 45.006C35.6507 45.6162 34.0727 45.9302 32.4791 45.9299C24.2314 45.9299 14.1182 45.9299 10.0889 45.9299C9.52855 45.9299 7.45352 45.9755 6.7292 45.7361C5.96098 45.4799 5.28712 44.9991 4.79461 44.3557C4.30211 43.7123 4.01359 42.9359 3.96629 42.1268C3.93896 41.1601 4.23506 39.279 6.18481 38.31C7.38063 37.7172 10.8952 37.5234 13.1843 37.4938C18.0473 37.4277 20.1633 37.8837 20.1633 37.8837C15.6557 33.4536 8.62884 28.4854 3.08025 26.5497C1.16922 25.8839 0.0895674 24.639 0.00301307 22.3134C-0.085819 19.949 1.80927 18.4374 3.08253 18.0384C4.01599 17.7549 5.01681 17.7878 5.92971 18.1318C6.77931 18.4419 15.6853 22.4388 20.1679 26.6979C15.5486 19.4976 10.9749 15.4916 3.96629 10.8358C1.40838 9.13944 0.565616 5.66696 2.5837 3.06774C3.90251 1.36 6.06409 0.525513 9.16638 1.27792C10.508 1.60168 12.6308 2.95146 14.0749 4.26247C18.963 8.70167 24.9033 17.0466 28.3199 23.9071C27.2608 17.2951 25.3361 13.3712 22.2794 7.90138C21.2065 5.98389 21.571 4.23739 22.0516 3.34134C22.7007 2.16029 23.9786 1.02712 26.1037 1.0864Z" fill="url(#paint0_linear_1052_1959)"/>
<path id="Vector_2" fill-rule="evenodd" clip-rule="evenodd" d="M37.1918 29.45C36.0757 29.45 35.1692 30.7199 35.1692 32.2863C35.1692 33.8527 36.0803 35.1249 37.1918 35.1249C38.3034 35.1249 39.2145 33.8527 39.2145 32.2863C39.2145 30.7199 38.3079 29.45 37.1918 29.45ZM29.7504 29.4636C28.6343 29.4636 27.7278 30.7336 27.7278 32.3C27.7278 33.8664 28.6389 35.1386 29.7504 35.1386C30.862 35.1386 31.7731 33.8664 31.7731 32.3C31.7731 30.7336 30.8688 29.4636 29.7504 29.4636ZM36.4743 37.8815C36.4743 39.0602 35.1874 40.0179 33.5998 40.0179C32.0122 40.0179 30.7276 39.0602 30.7276 37.8815H36.4743Z" fill="white"/>
</g>
</g>
<defs>
<linearGradient id="paint0_linear_1052_1959" x1="41.5468" y1="41.8646" x2="2.61546" y2="2.97438" gradientUnits="userSpaceOnUse">
<stop stop-color="#FF4AF4"/>
<stop offset="0.05" stop-color="#F64CF1"/>
<stop offset="0.13" stop-color="#DD52E8"/>
<stop offset="0.24" stop-color="#B45BDA"/>
<stop offset="0.32" stop-color="#9063CD"/>
<stop offset="0.53" stop-color="#4893B1"/>
<stop offset="0.65" stop-color="#26AAA4"/>
<stop offset="0.9" stop-color="#00C395"/>
</linearGradient>
</defs>
</svg>
