<svg width="92" height="30" viewBox="0 0 92 30" fill="none" xmlns="http://www.w3.org/2000/svg">
<g id="&#208;&#155;&#208;&#190;&#208;&#179;&#208;&#190;&#209;&#130;&#208;&#184;&#208;&#191; &#208;&#190;&#209;&#129;&#208;&#189;&#208;&#190;&#208;&#178;&#208;&#189;&#208;&#190;&#208;&#185;">
<path id="Vector" d="M34.7788 3.70935V13.4891H37.0383V5.59113H40.8209V13.4891H43.0804V3.70935H34.7788Z" fill="white"/>
<path id="Vector_2" d="M51.5932 4.97393C51.3204 4.51892 50.8954 4.17534 50.3936 4.00417C49.7549 3.79023 49.0837 3.69042 48.4105 3.70928H44.4912V13.4891H46.7113V10.0599H48.5137C49.3529 10.0599 50.0287 9.92158 50.5409 9.64494C51.0301 9.39519 51.4227 8.98994 51.657 8.49277C51.8953 7.95645 52.0124 7.37414 52.0002 6.78731C51.9961 6.02832 51.8605 5.42386 51.5932 4.97393ZM49.5311 7.69628C49.4086 7.92032 49.2114 8.09411 48.9738 8.18725C48.6643 8.30022 48.3358 8.35184 48.0065 8.33925H46.7188V5.47858H48.2601C48.4343 5.47884 48.608 5.49821 48.7779 5.53634C48.9455 5.57388 49.1047 5.64245 49.2471 5.7385C49.3953 5.84248 49.5124 5.98488 49.5858 6.15043C49.6783 6.36672 49.7219 6.60082 49.7133 6.83595C49.7256 7.13349 49.663 7.42934 49.5311 7.69628Z" fill="white"/>
<path id="Vector_3" d="M59.5182 3.70935C59.0708 4.37512 58.6421 5.00998 58.2321 5.61393L57.0173 7.40451L55.435 9.74229H55.2725V3.70935H53.0737V13.4891H54.9627C55.3414 12.9298 55.7336 12.3517 56.1396 11.7548C56.5455 11.1579 56.9915 10.5038 57.4774 9.79245L59.0748 7.45011H59.2267V13.4891H61.427V3.70935H59.5182Z" fill="white"/>
<path id="Vector_4" d="M70.2252 9.55232C70.0618 9.24265 69.8165 8.98393 69.5161 8.80448C69.1939 8.61456 68.8431 8.47803 68.4774 8.40015V8.22839C68.8062 8.14641 69.1157 8.00079 69.3885 7.79975C69.6586 7.60091 69.8772 7.34034 70.0263 7.03974C70.1881 6.70244 70.2677 6.33155 70.2586 5.95749C70.2635 5.64225 70.2041 5.32934 70.084 5.03788C69.9583 4.7569 69.7596 4.51488 69.5085 4.33715C69.1845 4.11414 68.8188 3.95903 68.4334 3.88115C67.8846 3.76361 67.3241 3.70955 66.763 3.72003H62.8149V13.4998H66.2346C66.9317 13.5136 67.6282 13.4478 68.3104 13.3037C68.7772 13.2094 69.2193 13.0189 69.6087 12.7444C69.9092 12.5243 70.1418 12.224 70.2799 11.8779C70.4194 11.5169 70.4895 11.1327 70.4864 10.7455C70.4988 10.3323 70.4091 9.92246 70.2252 9.55232ZM66.5808 5.389C67.0374 5.389 67.378 5.48628 67.6028 5.68085C67.7189 5.79039 67.8093 5.92441 67.8673 6.0732C67.9253 6.22199 67.9496 6.38184 67.9383 6.54117C67.9425 6.76454 67.887 6.98495 67.7774 7.17958C67.6604 7.3698 67.4897 7.52107 67.2869 7.6143C67.0264 7.73052 66.7428 7.78563 66.4578 7.77543H65.0198V5.389H66.5808ZM67.9718 11.2319C67.8362 11.4281 67.6406 11.5748 67.4145 11.6499C67.1028 11.7585 66.7741 11.81 66.4441 11.8019H65.0198V9.3532H66.5535C67.0698 9.3532 67.4651 9.45048 67.7394 9.64504C67.8782 9.7489 67.9886 9.88603 68.0605 10.0438C68.1324 10.2016 68.1635 10.375 68.1509 10.5479C68.1598 10.7888 68.0969 11.0269 67.9702 11.2319H67.9718Z" fill="white"/>
<path id="Vector_5" d="M73.9046 11.6438V9.41549H77.9666V7.70091H73.9046V5.55313H78.1868V3.70935H71.6982V13.4891H78.2475V11.6438H73.9046Z" fill="white"/>
<path id="Vector_6" d="M87.5515 3.70935H79.4062V5.67777H82.3582V13.4891H84.6056V5.67777H87.5515V3.70935Z" fill="white"/>
<path id="Vector_7" d="M89.8107 13.6715C89.5739 13.6779 89.3397 13.6213 89.1319 13.5074C88.9474 13.4015 88.7956 13.2469 88.6931 13.0605C88.589 12.8646 88.5367 12.6454 88.5412 12.4236C88.5357 12.2614 88.5634 12.0997 88.6227 11.9486C88.682 11.7975 88.7716 11.6601 88.8859 11.545C89.0108 11.4274 89.1582 11.3363 89.3192 11.2773C89.4803 11.2182 89.6516 11.1924 89.8228 11.2015C90.0583 11.1933 90.292 11.2457 90.5016 11.3535C90.686 11.4533 90.8382 11.6035 90.9404 11.7867C91.0445 11.9804 91.0969 12.1977 91.0923 12.4175C91.0998 12.5863 91.0715 12.7547 91.0094 12.9117C90.9472 13.0688 90.8526 13.2109 90.7317 13.3288C90.6108 13.4466 90.4664 13.5375 90.3079 13.5956C90.1495 13.6536 89.9805 13.6774 89.8122 13.6654L89.8107 13.6715ZM88.9998 9.86237C88.9623 8.77404 88.9183 7.69584 88.8677 6.62778C88.8161 5.56377 88.7705 4.76576 88.7158 3.70935H90.9359C90.8827 4.77336 90.8478 5.51361 90.7962 6.58978C90.7446 7.66595 90.699 8.74972 90.6595 9.83957L88.9998 9.86237Z" fill="white"/>
<path id="Vector_8" d="M41.2677 21.948C41.0408 21.5573 40.7059 21.2406 40.3035 21.036C39.7158 20.7274 39.0968 20.4828 38.457 20.3064C38.111 20.2074 37.7717 20.0866 37.4411 19.9446C37.2182 19.8566 37.0187 19.7182 36.858 19.5403C36.7301 19.3813 36.6633 19.1818 36.6697 18.9779C36.6623 18.7694 36.7339 18.5658 36.8701 18.4079C37.0153 18.2492 37.2004 18.1326 37.4062 18.0704C37.6518 17.9934 37.9081 17.956 38.1654 17.9595C38.4433 17.9627 38.7202 17.9948 38.9915 18.0552C39.3076 18.1234 39.6174 18.218 39.9178 18.338C40.2351 18.461 40.5401 18.6137 40.8289 18.794L40.9898 16.8012C40.7813 16.7003 40.5662 16.6134 40.346 16.5413C40.1 16.4592 39.8312 16.3893 39.5427 16.3209C39.2542 16.2525 38.9566 16.2054 38.6483 16.1689C38.3461 16.1311 38.0418 16.1118 37.7372 16.1111C37.0759 16.0884 36.4178 16.2146 35.8118 16.4805C35.336 16.6974 34.938 17.0549 34.6714 17.505C34.4138 17.9694 34.2844 18.494 34.2963 19.025C34.2757 19.5146 34.3913 20.0003 34.6304 20.428C34.8677 20.8052 35.2003 21.1129 35.5946 21.3202C36.0771 21.5777 36.5863 21.7815 37.1131 21.9282C37.4888 22.0336 37.8588 22.1584 38.2216 22.3021C38.4875 22.3998 38.7311 22.5497 38.9383 22.743C39.021 22.8257 39.0859 22.9244 39.129 23.0332C39.172 23.1419 39.1924 23.2583 39.1889 23.3753C39.1969 23.5942 39.1288 23.8091 38.996 23.9833C38.8523 24.1519 38.663 24.2754 38.4509 24.339C38.1863 24.4201 37.9106 24.4591 37.634 24.4545C37.3008 24.4526 36.9687 24.418 36.6424 24.3511C36.2915 24.2791 35.9464 24.1816 35.6098 24.0593C35.2668 23.9326 34.9338 23.7801 34.6137 23.6033L34.4512 25.5793C34.7454 25.7124 35.0501 25.8206 35.3623 25.9031C35.7566 26.0141 36.1572 26.1014 36.5619 26.1645C36.9751 26.2315 37.393 26.2655 37.8116 26.2663C38.6853 26.2663 39.3984 26.1427 39.9512 25.8955C40.4566 25.6868 40.8822 25.322 41.166 24.8543C41.4343 24.3759 41.5691 23.8341 41.5562 23.2856C41.5708 22.8228 41.4717 22.3635 41.2677 21.948Z" fill="#00C395"/>
<path id="Vector_9" d="M50.1935 16.3103H42.0498V18.2772H44.9987V26.0901H47.2507V18.2772H50.1935V16.3103Z" fill="#00C395"/>
<path id="Vector_10" d="M55.4778 24.415C55.8885 24.4247 56.2956 24.3361 56.6653 24.1566C56.9967 23.9883 57.2847 23.7453 57.5065 23.4468C57.7356 23.1373 57.9064 22.7885 58.0107 22.4177C58.1227 22.0222 58.1789 21.6129 58.1777 21.2017C58.181 20.7729 58.1196 20.346 57.9955 19.9355C57.885 19.5638 57.7063 19.2158 57.4686 18.9095C57.242 18.6196 56.9529 18.3847 56.6228 18.2225C56.2581 18.0579 55.8625 17.9734 55.4626 17.9747C55.0626 17.9761 54.6675 18.0631 54.304 18.2301C53.97 18.3957 53.6785 18.6359 53.4521 18.9323C53.2172 19.2412 53.0406 19.5905 52.9313 19.9629C52.8116 20.3648 52.7522 20.7823 52.7551 21.2017C52.7528 21.618 52.8096 22.0326 52.9237 22.4329C53.0294 22.8043 53.2023 23.1531 53.4339 23.462C53.6587 23.7597 53.9499 24.0007 54.2843 24.1658C54.6573 24.3407 55.066 24.426 55.4778 24.415ZM55.5143 26.2725C54.7314 26.2911 53.9528 26.1525 53.2244 25.8651C52.6159 25.6196 52.072 25.2373 51.6345 24.7479C51.2188 24.2754 50.9036 23.723 50.7082 23.1245C50.5042 22.5052 50.4016 21.8569 50.4045 21.2048C50.3906 20.3113 50.584 19.4267 50.9694 18.6207C51.34 17.857 51.926 17.2187 52.6549 16.7846C53.404 16.3316 54.3364 16.1051 55.452 16.1051C56.2132 16.0887 56.9701 16.2224 57.6796 16.4988C58.2829 16.7402 58.8245 17.1136 59.2649 17.5917C59.6887 18.0608 60.0113 18.6124 60.2125 19.212C60.4256 19.8488 60.5318 20.5165 60.5268 21.188C60.543 22.0898 60.3458 22.9825 59.9513 23.7933C59.5768 24.5547 58.987 25.189 58.2551 25.6174C57.5101 26.0551 56.5964 26.2735 55.5143 26.2725Z" fill="#00C395"/>
<path id="Vector_11" d="M69.4815 25.2221C69.2582 24.8938 69.0259 24.5579 68.7997 24.2143C68.5734 23.8708 68.3441 23.5471 68.1391 23.2431L67.2599 21.9465C67.4706 21.891 67.6743 21.812 67.8673 21.7109C68.3257 21.4785 68.6981 21.1057 68.9302 20.6469C69.1584 20.1732 69.2723 19.6526 69.2628 19.1269C69.2628 18.4175 69.1206 17.8561 68.8361 17.4427C68.5301 17.0161 68.0883 16.7064 67.5833 16.5641C66.927 16.3739 66.2454 16.2852 65.5622 16.3011H61.8115V26.0809H64.0225V22.4846H65.1978L66.1316 23.9544L66.7983 24.985C67.026 25.3376 67.2614 25.7055 67.5074 26.09H70.0691C69.9011 25.8377 69.7052 25.5484 69.4815 25.2221ZM64.0225 18.078H65.4908C65.6642 18.0779 65.8371 18.0947 66.0071 18.1282C66.1735 18.1611 66.3316 18.2273 66.4718 18.3228C66.6169 18.4243 66.7322 18.5629 66.8059 18.724C66.8972 18.9374 66.9397 19.1685 66.9304 19.4005C66.9464 19.7063 66.8798 20.0109 66.7375 20.2821C66.609 20.4973 66.4074 20.6591 66.1696 20.7381C65.8727 20.8347 65.5615 20.8799 65.2494 20.8718H64.0225V18.078Z" fill="#00C395"/>
<path id="Vector_12" d="M73.1849 24.2478V22.018H77.2484V20.3003H73.1849V18.151H77.4671V16.3103H70.9785V26.0901H77.5248V24.2478H73.1849Z" fill="#00C395"/>
<path id="Vector_13" fill-rule="evenodd" clip-rule="evenodd" d="M25.5616 18.99C24.8175 18.99 24.2132 19.8367 24.2132 20.8809C24.2132 21.9252 24.8206 22.7733 25.5616 22.7733C26.3026 22.7733 26.91 21.9252 26.91 20.8809C26.91 19.8367 26.3057 18.99 25.5616 18.99ZM20.6007 18.9991C19.8566 18.9991 19.2522 19.8458 19.2522 20.89C19.2522 21.9343 19.8596 22.7825 20.6007 22.7825C21.3417 22.7825 21.9506 21.9343 21.9506 20.89C21.9506 19.8458 21.3447 18.9991 20.6007 18.9991ZM25.0833 24.611C25.0833 25.3969 24.2253 26.0353 23.1669 26.0353C22.1085 26.0353 21.2521 25.3969 21.2521 24.611H25.0833ZM18.1696 0.0810363C19.4785 0.112957 20.9545 0.993046 22.3652 4.28388C23.8973 7.85743 24.6429 9.75593 25.0848 13.328C25.8547 10.5615 25.3885 6.9743 25.0848 3.59987C25.0074 2.7441 25.6087 1.77585 26.4393 1.36089C27.6845 0.752883 29.2409 1.31529 29.8817 2.75626C30.436 4.00267 30.5195 6.5563 30.5104 7.87719C30.4952 10.4992 30.4982 16.707 30.5104 21.8796C30.5104 22.943 30.3011 23.9961 29.8945 24.9785C29.4879 25.961 28.8919 26.8537 28.1406 27.6056C27.3893 28.3575 26.4974 28.9539 25.5158 29.3608C24.5343 29.7676 23.4822 29.9769 22.4198 29.9767C16.9214 29.9767 10.1792 29.9767 7.49301 29.9767C7.11945 29.9767 5.7361 30.0071 5.25322 29.8475C4.74108 29.6767 4.29183 29.3562 3.9635 28.9272C3.63517 28.4983 3.44281 27.9807 3.41128 27.4413C3.39306 26.7968 3.59047 25.5428 4.8903 24.8968C5.68751 24.5016 8.03055 24.3724 9.55664 24.3526C12.7986 24.3085 14.2093 24.6126 14.2093 24.6126C11.2042 21.6592 6.51965 18.3471 2.82059 17.0566C1.54657 16.6127 0.826801 15.7828 0.769099 14.2324C0.709877 12.6561 1.97327 11.6483 2.82211 11.3823C3.44441 11.1934 4.11163 11.2153 4.72023 11.4447C5.28663 11.6514 11.224 14.316 14.2124 17.1554C11.1328 12.3552 8.0837 9.68449 3.41128 6.58062C1.70601 5.44973 1.14417 3.13475 2.48956 1.40193C3.36877 0.263438 4.80982 -0.292887 6.87801 0.208718C7.77241 0.42456 9.18765 1.32441 10.1504 2.19842C13.4091 5.15789 17.3693 10.7211 19.6471 15.2949C18.941 10.8868 17.6578 8.27088 15.62 4.62436C14.9048 3.34603 15.1477 2.1817 15.4682 1.58433C15.9009 0.796963 16.7528 0.0415159 18.1696 0.0810363Z" fill="url(#paint0_linear_1052_4931)"/>
<path id="Vector_14" fill-rule="evenodd" clip-rule="evenodd" d="M25.5618 18.99C24.8177 18.99 24.2134 19.8366 24.2134 20.8809C24.2134 21.9251 24.8208 22.7733 25.5618 22.7733C26.3028 22.7733 26.9102 21.9251 26.9102 20.8809C26.9102 19.8366 26.3059 18.99 25.5618 18.99ZM20.6009 18.9991C19.8568 18.9991 19.2524 19.8458 19.2524 20.89C19.2524 21.9343 19.8598 22.7824 20.6009 22.7824C21.3419 22.7824 21.9493 21.9343 21.9493 20.89C21.9493 19.8458 21.3464 18.9991 20.6009 18.9991ZM25.0835 24.611C25.0835 25.3969 24.2255 26.0353 23.1671 26.0353C22.1087 26.0353 21.2523 25.3969 21.2523 24.611H25.0835Z" fill="white"/>
</g>
<defs>
<linearGradient id="paint0_linear_1052_4931" x1="28.465" y1="27.2665" x2="2.51073" y2="1.33969" gradientUnits="userSpaceOnUse">
<stop stop-color="#FF4AF4"/>
<stop offset="0.05" stop-color="#F64CF1"/>
<stop offset="0.13" stop-color="#DD52E8"/>
<stop offset="0.24" stop-color="#B45BDA"/>
<stop offset="0.32" stop-color="#9063CD"/>
<stop offset="0.53" stop-color="#4893B1"/>
<stop offset="0.65" stop-color="#26AAA4"/>
<stop offset="0.9" stop-color="#00C395"/>
</linearGradient>
</defs>
</svg>
