<svg width="80" height="80" viewBox="0 0 80 80" fill="none" xmlns="http://www.w3.org/2000/svg">
<rect width="80" height="80" rx="15" fill="#F8F5FF"/>
<path d="M38.6299 46.1357C38.4841 46.2199 38.3191 46.2708 38.1484 46.279L32.6481 46.5446C31.087 46.6193 29.744 46.467 28.5411 46.0808C25.9091 45.2368 23.7003 43.478 22.3232 41.1258L17.7879 33.3854C17.2643 32.4921 17.3817 31.3513 18.0768 30.5458L24.3043 23.3515C24.6718 22.9204 25.1861 22.6204 25.7482 22.5071L35.069 20.6022C36.1116 20.3876 37.1644 20.8451 37.6862 21.7379L42.2248 29.4841C43.6011 31.8322 44.056 34.6158 43.507 37.3224C43.2549 38.5639 42.7296 39.8086 41.9028 41.1279L38.9891 45.786C38.8992 45.9313 38.7751 46.0504 38.6299 46.1357Z" fill="url(#paint0_radial_661_25591)"/>
<g filter="url(#filter0_f_661_25591)">
<path d="M36.1986 41.5239C36.0997 41.581 35.9894 41.6183 35.877 41.6297L32.2551 41.9976C31.2272 42.1016 30.351 42.0581 29.5754 41.8659C27.8784 41.4461 26.4935 40.449 25.6768 39.0568L22.9869 34.4756C22.6763 33.947 22.7959 33.2425 23.2823 32.7223L27.6398 28.0754C27.8972 27.7972 28.2461 27.5939 28.6194 27.5034L34.8112 25.9873C35.5038 25.8167 36.1782 26.0583 36.4876 26.5867L39.1795 31.1713C39.9958 32.561 40.1908 34.2523 39.7295 35.9337C39.5177 36.705 39.1264 37.4884 38.5343 38.3288L36.4474 41.2959C36.383 41.3884 36.297 41.4661 36.1986 41.5239Z" fill="#3D03B7" fill-opacity="0.5"/>
</g>
<g filter="url(#filter1_b_661_25591)">
<mask id="path-4-outside-1_661_25591" maskUnits="userSpaceOnUse" x="25.1686" y="20.4485" width="38.3928" height="42.5746" fill="black">
<rect fill="white" x="25.1686" y="20.4485" width="38.3928" height="42.5746"/>
<path d="M41.6286 59.6881C41.4073 59.654 41.1938 59.5692 41.01 59.4351L35.0873 55.1143C33.4068 53.8873 32.1417 52.6057 31.2166 51.1971C29.1914 48.1161 28.3673 44.4342 28.8998 40.8281L30.6479 28.9588C30.8493 27.5889 31.9216 26.4964 33.3132 26.2369L45.7627 23.9345C46.5028 23.7918 47.2859 23.9086 47.9629 24.2603L59.2118 30.0639C60.4713 30.7114 61.1814 32.069 60.9784 33.4369L59.229 45.315C58.6991 48.916 56.8513 52.2014 54.0272 54.5671C52.7314 55.6521 51.1499 56.512 49.1936 57.1977L42.2923 59.6233C42.0779 59.6998 41.8501 59.7204 41.6286 59.6881Z"/>
</mask>
<path d="M41.6286 59.6881C41.4073 59.654 41.1938 59.5692 41.01 59.4351L35.0873 55.1143C33.4068 53.8873 32.1417 52.6057 31.2166 51.1971C29.1914 48.1161 28.3673 44.4342 28.8998 40.8281L30.6479 28.9588C30.8493 27.5889 31.9216 26.4964 33.3132 26.2369L45.7627 23.9345C46.5028 23.7918 47.2859 23.9086 47.9629 24.2603L59.2118 30.0639C60.4713 30.7114 61.1814 32.069 60.9784 33.4369L59.229 45.315C58.6991 48.916 56.8513 52.2014 54.0272 54.5671C52.7314 55.6521 51.1499 56.512 49.1936 57.1977L42.2923 59.6233C42.0779 59.6998 41.8501 59.7204 41.6286 59.6881Z" fill="#3D03B7" fill-opacity="0.35"/>
<path d="M41.5569 60.1537C41.8141 60.1932 42.0546 60.0168 42.0942 59.7597C42.1337 59.5025 41.9573 59.262 41.7002 59.2225L41.5569 60.1537ZM41.01 59.4351L41.2877 59.0545L41.2877 59.0545L41.01 59.4351ZM35.0873 55.1143L34.8095 55.4948L34.8096 55.4949L35.0873 55.1143ZM31.2166 51.1971L31.6103 50.9384L31.6102 50.9383L31.2166 51.1971ZM28.8998 40.8281L29.3658 40.897L29.3659 40.8968L28.8998 40.8281ZM30.6479 28.9588L31.1139 29.0275L31.114 29.0274L30.6479 28.9588ZM33.3132 26.2369L33.2275 25.7736L33.2268 25.7738L33.3132 26.2369ZM45.7627 23.9345L45.8483 24.3977L45.8518 24.397L45.7627 23.9345ZM47.9629 24.2603L47.7458 24.6784L47.7469 24.679L47.9629 24.2603ZM59.2118 30.0639L58.9958 30.4825L58.9964 30.4828L59.2118 30.0639ZM60.9784 33.4369L60.5124 33.3678L60.5123 33.3683L60.9784 33.4369ZM59.229 45.315L58.7629 45.2464L58.7629 45.2464L59.229 45.315ZM54.0272 54.5671L54.3296 54.9283L54.3297 54.9282L54.0272 54.5671ZM49.1936 57.1977L49.0378 56.7531L49.0374 56.7533L49.1936 57.1977ZM42.2923 59.6233L42.1361 59.1789L42.134 59.1796L42.2923 59.6233ZM41.6965 59.2219C41.439 59.1844 41.1999 59.3627 41.1624 59.6202C41.1249 59.8776 41.3032 60.1167 41.5606 60.1542L41.6965 59.2219ZM41.7002 59.2225C41.5497 59.1993 41.4076 59.142 41.2877 59.0545L40.7324 59.8157C40.98 59.9964 41.2649 60.1088 41.5569 60.1537L41.7002 59.2225ZM41.2877 59.0545L35.3649 54.7337L34.8096 55.4949L40.7324 59.8157L41.2877 59.0545ZM35.3651 54.7339C33.7201 53.5327 32.4982 52.2904 31.6103 50.9384L30.8228 51.4557C31.7852 52.921 33.0935 54.2418 34.8095 55.4948L35.3651 54.7339ZM31.6102 50.9383C29.6477 47.9525 28.8505 44.387 29.3658 40.897L28.4337 40.7593C27.8841 44.4814 28.7352 48.2796 30.8229 51.4558L31.6102 50.9383ZM29.3659 40.8968L31.1139 29.0275L30.1818 28.8902L28.4337 40.7595L29.3659 40.8968ZM31.114 29.0274C31.2851 27.8634 32.1989 26.9239 33.3996 26.7L33.2268 25.7738C31.6442 26.0689 30.4135 27.3144 30.1818 28.8903L31.114 29.0274ZM33.3989 26.7001L45.8483 24.3977L45.677 23.4712L33.2275 25.7736L33.3989 26.7001ZM45.8518 24.397C46.4858 24.2748 47.1612 24.3747 47.7458 24.6784L48.1801 23.8422C47.4107 23.4426 46.5198 23.3087 45.6735 23.4719L45.8518 24.397ZM47.7469 24.679L58.9958 30.4825L59.4278 29.6452L48.1789 23.8416L47.7469 24.679ZM58.9964 30.4828C60.082 31.0409 60.6849 32.2056 60.5124 33.3678L61.4444 33.5061C61.6779 31.9325 60.8606 30.3818 59.4272 29.6449L58.9964 30.4828ZM60.5123 33.3683L58.7629 45.2464L59.695 45.3837L61.4445 33.5056L60.5123 33.3683ZM58.7629 45.2464C58.2501 48.7316 56.4615 51.9134 53.7247 54.2059L54.3297 54.9282C57.2411 52.4894 59.1481 49.1005 59.695 45.3836L58.7629 45.2464ZM53.7247 54.2059C52.4812 55.2472 50.9525 56.082 49.0378 56.7531L49.3495 57.6423C51.3473 56.942 52.9817 56.057 54.3296 54.9283L53.7247 54.2059ZM49.0374 56.7533L42.1361 59.1789L42.4485 60.0678L49.3499 57.6422L49.0374 56.7533ZM42.134 59.1796C41.9943 59.2295 41.8442 59.2434 41.6965 59.2219L41.5606 60.1542C41.856 60.1973 42.1616 60.1701 42.4505 60.067L42.134 59.1796Z" fill="url(#paint1_linear_661_25591)" mask="url(#path-4-outside-1_661_25591)"/>
</g>
<g filter="url(#filter2_bd_661_25591)">
<path d="M42.3667 45.7548C42.021 45.7035 41.6947 45.5259 41.4678 45.2292L38.5491 41.4081C38.0989 40.8151 38.2213 39.9836 38.824 39.549C39.427 39.1126 40.2824 39.2387 40.7346 39.8303L42.8349 42.5784L49.7651 37.5707C50.3699 37.1345 51.2253 37.2607 51.6757 37.852C52.1278 38.4452 52.0052 39.2784 51.4027 39.7113L43.3784 45.5104C43.0759 45.7294 42.7124 45.8062 42.3667 45.7548Z" fill="url(#paint2_linear_661_25591)"/>
<path d="M38.8516 39.5872L38.8516 39.5872C39.4339 39.1657 40.2604 39.2876 40.6972 39.8589C40.6972 39.8589 40.6972 39.8589 40.6972 39.8589L42.7975 42.607L42.8254 42.6435L42.8625 42.6166L49.7927 37.6089C50.3769 37.1876 51.2033 37.3096 51.6383 37.8805C52.0743 38.4529 51.9559 39.2558 51.3752 39.6731L51.3751 39.6731L43.3509 45.4723L43.3508 45.4723C43.0588 45.6836 42.7078 45.7579 42.3736 45.7082C42.0392 45.6586 41.7242 45.487 41.5052 45.2005L38.5867 41.3796C38.5866 41.3796 38.5866 41.3795 38.5866 41.3795C38.1524 40.8075 38.2704 40.0063 38.8516 39.5872Z" stroke="url(#paint3_linear_661_25591)" stroke-opacity="0.5" stroke-width="0.0942197"/>
</g>
<defs>
<filter id="filter0_f_661_25591" x="15.2788" y="18.396" width="32.2333" height="31.1943" filterUnits="userSpaceOnUse" color-interpolation-filters="sRGB">
<feFlood flood-opacity="0" result="BackgroundImageFix"/>
<feBlend mode="normal" in="SourceGraphic" in2="BackgroundImageFix" result="shape"/>
<feGaussianBlur stdDeviation="3.76879" result="effect1_foregroundBlur_661_25591"/>
</filter>
<filter id="filter1_b_661_25591" x="16.9651" y="12.0979" width="55.8256" height="59.3822" filterUnits="userSpaceOnUse" color-interpolation-filters="sRGB">
<feFlood flood-opacity="0" result="BackgroundImageFix"/>
<feGaussianBlur in="BackgroundImageFix" stdDeviation="5.65318"/>
<feComposite in2="SourceAlpha" operator="in" result="effect1_backgroundBlur_661_25591"/>
<feBlend mode="normal" in="SourceGraphic" in2="effect1_backgroundBlur_661_25591" result="shape"/>
</filter>
<filter id="filter2_bd_661_25591" x="31.2109" y="30.2441" width="27.8048" height="22.5929" filterUnits="userSpaceOnUse" color-interpolation-filters="sRGB">
<feFlood flood-opacity="0" result="BackgroundImageFix"/>
<feGaussianBlur in="BackgroundImageFix" stdDeviation="3.53324"/>
<feComposite in2="SourceAlpha" operator="in" result="effect1_backgroundBlur_661_25591"/>
<feColorMatrix in="SourceAlpha" type="matrix" values="0 0 0 0 0 0 0 0 0 0 0 0 0 0 0 0 0 0 127 0" result="hardAlpha"/>
<feOffset dx="2.35549" dy="2.35549"/>
<feGaussianBlur stdDeviation="2.35549"/>
<feColorMatrix type="matrix" values="0 0 0 0 0.239216 0 0 0 0 0.0117647 0 0 0 0 0.717647 0 0 0 0.5 0"/>
<feBlend mode="normal" in2="effect1_backgroundBlur_661_25591" result="effect2_dropShadow_661_25591"/>
<feBlend mode="normal" in="SourceGraphic" in2="effect2_dropShadow_661_25591" result="shape"/>
</filter>
<radialGradient id="paint0_radial_661_25591" cx="0" cy="0" r="1" gradientUnits="userSpaceOnUse" gradientTransform="translate(34.9999 36) rotate(-178.21) scale(16.0078 13.6841)">
<stop stop-color="#3D03B7" stop-opacity="0"/>
<stop offset="1" stop-color="#3D03B7"/>
</radialGradient>
<linearGradient id="paint1_linear_661_25591" x1="35.9767" y1="26.4963" x2="55.4965" y2="54.5975" gradientUnits="userSpaceOnUse">
<stop stop-color="white" stop-opacity="0.25"/>
<stop offset="1" stop-color="white" stop-opacity="0"/>
</linearGradient>
<linearGradient id="paint2_linear_661_25591" x1="50.9438" y1="39.1071" x2="36.2752" y2="37.5213" gradientUnits="userSpaceOnUse">
<stop stop-color="white"/>
<stop offset="1" stop-color="white" stop-opacity="0.2"/>
</linearGradient>
<linearGradient id="paint3_linear_661_25591" x1="39.9651" y1="38.9244" x2="51.0676" y2="40.7185" gradientUnits="userSpaceOnUse">
<stop stop-color="white"/>
<stop offset="1" stop-color="white" stop-opacity="0"/>
</linearGradient>
</defs>
</svg>
