<svg width="80" height="80" viewBox="0 0 80 80" fill="none" xmlns="http://www.w3.org/2000/svg">
<rect width="80" height="80" rx="15" fill="#F8F5FF"/>
<path d="M32.7163 33.3782C31.2726 32.1277 30.5507 31.5024 30.0897 30.8089C29.0261 29.2091 28.7749 27.2029 29.4112 25.3902C29.6869 24.6045 30.2323 23.8205 31.3231 22.2526C32.414 20.6847 32.9594 19.9007 33.6002 19.3689C35.0785 18.1421 37.0469 17.6801 38.9167 18.121C39.7272 18.3121 40.5645 18.7715 42.239 19.6904L47.6439 22.6561C50.263 24.0933 51.5726 24.8118 52.3417 25.783C53.4732 27.2119 53.9095 29.0706 53.5319 30.8537C53.2753 32.0656 52.4222 33.2918 50.716 35.7443C49.0099 38.1967 48.1568 39.4229 47.1097 40.0849C45.5691 41.059 43.6747 41.2962 41.9416 40.7321C40.7636 40.3487 39.6345 39.3707 37.3763 37.4147L32.7163 33.3782Z" fill="url(#paint0_radial_661_25556)"/>
<g opacity="0.5" filter="url(#filter0_f_661_25556)">
<path d="M35.465 31.631C33.5496 29.9719 33.1943 27.135 34.6416 25.0548C36.0888 22.9746 38.8721 22.3212 41.0938 23.5403L44.2885 25.2933C47.0719 26.8205 47.9176 30.4234 46.1045 33.0296C44.2913 35.6357 40.6192 36.0955 38.2195 34.0169L35.465 31.631Z" fill="#3D03B7"/>
</g>
<g filter="url(#filter1_b_661_25556)">
<mask id="path-4-outside-1_661_25556" maskUnits="userSpaceOnUse" x="21" y="25.0898" width="39" height="35" fill="black">
<rect fill="white" x="21" y="25.0898" width="39" height="35"/>
<path d="M57.1959 45.2444C55.6948 45.2444 54.4735 44.0342 54.4735 42.5469C54.4735 41.0577 55.6948 39.8475 57.1959 39.8475C57.5597 39.8475 57.909 39.7044 58.1649 39.4508C58.4227 39.1953 58.5672 38.8493 58.5672 38.4888L58.5653 33.5937C58.5653 29.4559 55.1664 26.0898 50.9904 26.0898H29.5767C25.4007 26.0898 22.0018 29.4559 22.0018 33.5937L22 38.6464C22 39.0069 22.1444 39.3529 22.4022 39.6084C22.6582 39.862 23.0074 40.0051 23.3713 40.0051C24.9235 40.0051 26.0937 41.0976 26.0937 42.5469C26.0937 44.0342 24.8724 45.2444 23.3713 45.2444C22.6143 45.2444 22 45.8531 22 46.6032V51.4946C22 55.6324 25.3971 59.0003 29.5749 59.0003H50.9923C55.1701 59.0003 58.5672 55.6324 58.5672 51.4946V46.6032C58.5672 45.8531 57.9528 45.2444 57.1959 45.2444Z"/>
</mask>
<path d="M57.1959 45.2444C55.6948 45.2444 54.4735 44.0342 54.4735 42.5469C54.4735 41.0577 55.6948 39.8475 57.1959 39.8475C57.5597 39.8475 57.909 39.7044 58.1649 39.4508C58.4227 39.1953 58.5672 38.8493 58.5672 38.4888L58.5653 33.5937C58.5653 29.4559 55.1664 26.0898 50.9904 26.0898H29.5767C25.4007 26.0898 22.0018 29.4559 22.0018 33.5937L22 38.6464C22 39.0069 22.1444 39.3529 22.4022 39.6084C22.6582 39.862 23.0074 40.0051 23.3713 40.0051C24.9235 40.0051 26.0937 41.0976 26.0937 42.5469C26.0937 44.0342 24.8724 45.2444 23.3713 45.2444C22.6143 45.2444 22 45.8531 22 46.6032V51.4946C22 55.6324 25.3971 59.0003 29.5749 59.0003H50.9923C55.1701 59.0003 58.5672 55.6324 58.5672 51.4946V46.6032C58.5672 45.8531 57.9528 45.2444 57.1959 45.2444Z" fill="#3D03B7" fill-opacity="0.35"/>
<path d="M57.1959 45.7155C57.4561 45.7155 57.667 45.5046 57.667 45.2444C57.667 44.9842 57.4561 44.7733 57.1959 44.7733V45.7155ZM58.1649 39.4508L57.8333 39.1161L58.1649 39.4508ZM58.5672 38.4888H59.0383V38.4886L58.5672 38.4888ZM58.5653 33.5937H58.0942V33.5939L58.5653 33.5937ZM22.0018 33.5937L22.4729 33.5939V33.5937H22.0018ZM22 38.6464L21.5289 38.6462V38.6464H22ZM22.4022 39.6084L22.7338 39.2737L22.4022 39.6084ZM57.1959 44.7733C56.9357 44.7733 56.7248 44.9842 56.7248 45.2444C56.7248 45.5046 56.9357 45.7155 57.1959 45.7155V44.7733ZM57.1959 44.7733C55.9509 44.7733 54.9446 43.77 54.9446 42.5469H54.0024C54.0024 44.2985 55.4387 45.7155 57.1959 45.7155V44.7733ZM54.9446 42.5469C54.9446 41.3217 55.9511 40.3186 57.1959 40.3186V39.3764C55.4385 39.3764 54.0024 40.7937 54.0024 42.5469H54.9446ZM57.1959 40.3186C57.6828 40.3186 58.1515 40.1273 58.4965 39.7854L57.8333 39.1161C57.6664 39.2815 57.4367 39.3764 57.1959 39.3764V40.3186ZM58.4965 39.7854C58.8432 39.4419 59.0383 38.9756 59.0383 38.4888H58.0961C58.0961 38.723 58.0023 38.9487 57.8333 39.1161L58.4965 39.7854ZM59.0383 38.4886L59.0364 33.5935L58.0942 33.5939L58.0961 38.489L59.0383 38.4886ZM59.0364 33.5937C59.0364 29.1915 55.4224 25.6187 50.9904 25.6187V26.5609C54.9105 26.5609 58.0942 29.7203 58.0942 33.5937H59.0364ZM50.9904 25.6187H29.5767V26.5609H50.9904V25.6187ZM29.5767 25.6187C25.1448 25.6187 21.5307 29.1915 21.5307 33.5937H22.4729C22.4729 29.7203 25.6567 26.5609 29.5767 26.5609V25.6187ZM21.5307 33.5935L21.5289 38.6462L22.4711 38.6466L22.4729 33.5939L21.5307 33.5935ZM21.5289 38.6464C21.5289 39.1332 21.724 39.5995 22.0707 39.943L22.7338 39.2737C22.5649 39.1063 22.4711 38.8806 22.4711 38.6464H21.5289ZM22.0707 39.943C22.4157 40.2849 22.8844 40.4762 23.3713 40.4762V39.534C23.1305 39.534 22.9008 39.4391 22.7338 39.2737L22.0707 39.943ZM23.3713 40.4762C24.6944 40.4762 25.6226 41.3877 25.6226 42.5469H26.5648C26.5648 40.8074 25.1527 39.534 23.3713 39.534V40.4762ZM25.6226 42.5469C25.6226 43.77 24.6163 44.7733 23.3713 44.7733V45.7155C25.1284 45.7155 26.5648 44.2985 26.5648 42.5469H25.6226ZM23.3713 44.7733C22.3582 44.7733 21.5289 45.5889 21.5289 46.6032H22.4711C22.4711 46.1174 22.8704 45.7155 23.3713 45.7155V44.7733ZM21.5289 46.6032V51.4946H22.4711V46.6032H21.5289ZM21.5289 51.4946C21.5289 55.8966 25.1409 59.4714 29.5749 59.4714V58.5292C25.6533 58.5292 22.4711 55.3683 22.4711 51.4946H21.5289ZM29.5749 59.4714H50.9923V58.5292H29.5749V59.4714ZM50.9923 59.4714C55.4262 59.4714 59.0383 55.8966 59.0383 51.4946H58.0961C58.0961 55.3683 54.9139 58.5292 50.9923 58.5292V59.4714ZM59.0383 51.4946V46.6032H58.0961V51.4946H59.0383ZM59.0383 46.6032C59.0383 45.5889 58.2089 44.7733 57.1959 44.7733V45.7155C57.6967 45.7155 58.0961 46.1174 58.0961 46.6032H59.0383Z" fill="url(#paint1_linear_661_25556)" mask="url(#path-4-outside-1_661_25556)"/>
</g>
<g filter="url(#filter2_bd_661_25556)">
<path d="M46.5555 41.7931L44.3999 43.8921L44.91 46.8595C44.9978 47.3733 44.7912 47.8797 44.3688 48.1832C43.9501 48.4904 43.4034 48.5288 42.9427 48.2838L40.2824 46.8851L37.6167 48.2856C37.4192 48.3898 37.2035 48.4447 36.9896 48.4447C36.7098 48.4447 36.4337 48.3569 36.1961 48.185C35.7755 47.8797 35.5689 47.3733 35.6567 46.8595L36.165 43.8921L34.0093 41.7931C33.6364 41.4311 33.5065 40.899 33.6674 40.4036C33.8302 39.9099 34.2507 39.5589 34.7645 39.4857L37.7374 39.0524L39.0702 36.3519C39.3024 35.8875 39.7668 35.5986 40.2824 35.5986H40.2861C40.8035 35.6005 41.2679 35.8893 41.4965 36.3537L42.8293 39.0524L45.8077 39.4876C46.316 39.5589 46.7365 39.9099 46.8974 40.4036C47.0602 40.899 46.9303 41.4311 46.5555 41.7931Z" fill="url(#paint2_linear_661_25556)"/>
<path d="M46.5228 41.7592L46.5227 41.7594L44.367 43.8583L44.3493 43.8756L44.3535 43.9L44.8636 46.8674C44.9483 47.3635 44.749 47.852 44.3413 48.145L44.341 48.1452C43.937 48.4416 43.4097 48.4788 42.9648 48.2422L42.9646 48.2421L40.3044 46.8434L40.2824 46.8319L40.2605 46.8434L37.5948 48.2439L37.5947 48.2439C37.4037 48.3448 37.1955 48.3976 36.9896 48.3976C36.7198 48.3976 36.4534 48.313 36.2237 48.1469C35.8177 47.8521 35.6184 47.3635 35.7031 46.8674C35.7031 46.8674 35.7031 46.8674 35.7031 46.8674L36.2114 43.9L36.2156 43.8756L36.1978 43.8583L34.0422 41.7594L34.0422 41.7593C33.6822 41.41 33.5569 40.8967 33.7122 40.4182C33.8693 39.9416 34.2751 39.603 34.7711 39.5324L34.7712 39.5323L37.7442 39.099L37.7687 39.0954L37.7796 39.0733L39.1124 36.373C39.1124 36.3729 39.1124 36.3729 39.1124 36.3729C39.3368 35.9243 39.7849 35.6457 40.2824 35.6457H40.286C40.7856 35.6475 41.2336 35.9263 41.4542 36.3745L41.4542 36.3746L42.7871 39.0733L42.7981 39.0954L42.8225 39.099L45.8009 39.5342L45.8012 39.5342C46.2916 39.603 46.6973 39.9416 46.8526 40.4182L46.8527 40.4183C47.0098 40.8967 46.8845 41.4099 46.5228 41.7592Z" stroke="url(#paint3_linear_661_25556)" stroke-opacity="0.5" stroke-width="0.0942197"/>
</g>
<defs>
<filter id="filter0_f_661_25556" x="24.3319" y="13.5067" width="32.1525" height="31.2365" filterUnits="userSpaceOnUse" color-interpolation-filters="sRGB">
<feFlood flood-opacity="0" result="BackgroundImageFix"/>
<feBlend mode="normal" in="SourceGraphic" in2="BackgroundImageFix" result="shape"/>
<feGaussianBlur stdDeviation="4.71098" result="effect1_foregroundBlur_661_25556"/>
</filter>
<filter id="filter1_b_661_25556" x="10.2229" y="14.3128" width="60.1225" height="56.4653" filterUnits="userSpaceOnUse" color-interpolation-filters="sRGB">
<feFlood flood-opacity="0" result="BackgroundImageFix"/>
<feGaussianBlur in="BackgroundImageFix" stdDeviation="5.65318"/>
<feComposite in2="SourceAlpha" operator="in" result="effect1_backgroundBlur_661_25556"/>
<feBlend mode="normal" in="SourceGraphic" in2="effect1_backgroundBlur_661_25556" result="shape"/>
</filter>
<filter id="filter2_bd_661_25556" x="26.5331" y="28.5322" width="27.5001" height="26.9787" filterUnits="userSpaceOnUse" color-interpolation-filters="sRGB">
<feFlood flood-opacity="0" result="BackgroundImageFix"/>
<feGaussianBlur in="BackgroundImageFix" stdDeviation="3.53324"/>
<feComposite in2="SourceAlpha" operator="in" result="effect1_backgroundBlur_661_25556"/>
<feColorMatrix in="SourceAlpha" type="matrix" values="0 0 0 0 0 0 0 0 0 0 0 0 0 0 0 0 0 0 127 0" result="hardAlpha"/>
<feOffset dx="2.35549" dy="2.35549"/>
<feGaussianBlur stdDeviation="2.35549"/>
<feColorMatrix type="matrix" values="0 0 0 0 0.239216 0 0 0 0 0.0117647 0 0 0 0 0.717647 0 0 0 0.5 0"/>
<feBlend mode="normal" in2="effect1_backgroundBlur_661_25556" result="effect2_dropShadow_661_25556"/>
<feBlend mode="normal" in="SourceGraphic" in2="effect2_dropShadow_661_25556" result="shape"/>
</filter>
<radialGradient id="paint0_radial_661_25556" cx="0" cy="0" r="1" gradientUnits="userSpaceOnUse" gradientTransform="translate(41.0196 28.9985) rotate(34.8264) scale(11.8122 10.0529)">
<stop stop-color="#3D03B7" stop-opacity="0"/>
<stop offset="1" stop-color="#3D03B7"/>
</radialGradient>
<linearGradient id="paint1_linear_661_25556" x1="27.8209" y1="29.924" x2="54.5241" y2="60.1482" gradientUnits="userSpaceOnUse">
<stop stop-color="white" stop-opacity="0.25"/>
<stop offset="1" stop-color="white" stop-opacity="0"/>
</linearGradient>
<linearGradient id="paint2_linear_661_25556" x1="46.0187" y1="37.9184" x2="31.1307" y2="38.4235" gradientUnits="userSpaceOnUse">
<stop stop-color="white"/>
<stop offset="1" stop-color="white" stop-opacity="0.2"/>
</linearGradient>
<linearGradient id="paint3_linear_661_25556" x1="35.0395" y1="39.9079" x2="46.3897" y2="39.9731" gradientUnits="userSpaceOnUse">
<stop stop-color="white"/>
<stop offset="1" stop-color="white" stop-opacity="0"/>
</linearGradient>
</defs>
</svg>
