<svg width="80" height="80" viewBox="0 0 80 80" fill="none" xmlns="http://www.w3.org/2000/svg">
<rect width="80" height="80" rx="15" fill="#F8F5FF"/>
<path d="M52.5915 33.4075L51.3637 32.1802C50.8863 31.7029 50.6134 31.0551 50.6134 30.375V28.6175C50.6134 25.7878 48.3113 23.4883 45.4806 23.4883H43.7242C43.0421 23.4883 42.3941 23.2139 41.9167 22.7366L40.6718 21.4939C38.6597 19.4995 35.4026 19.4995 33.4075 21.5092L32.1797 22.7366C31.7023 23.2139 31.0543 23.4883 30.3722 23.4883H28.6158C25.7851 23.4883 23.483 25.7878 23.483 28.6175V30.3562C23.483 31.0551 23.2101 31.7029 22.7327 32.1802L21.4879 33.4263C19.4927 35.436 19.5098 38.6936 21.5049 40.6863L22.7327 41.8966C23.2101 42.3909 23.483 43.0387 23.483 43.7222V45.4763C23.483 48.306 25.7851 50.6089 28.6158 50.6089H30.3722C31.0543 50.6089 31.7023 50.8799 32.1797 51.3572L33.4246 52.6033C34.4307 53.592 35.7437 54.0846 37.0567 54.0846C38.3698 54.0846 39.6828 53.592 40.6889 52.5846L41.9167 51.3572C42.3941 50.8799 43.0421 50.6089 43.7242 50.6089H45.4806C48.3113 50.6089 50.6134 48.306 50.6134 45.4763V43.7222C50.6134 43.0387 50.8863 42.3909 51.3637 41.9136L52.5744 40.7033C52.5915 40.6863 52.6085 40.6709 52.6256 40.6522C53.5805 39.6823 54.1092 38.385 54.0921 37.0213C54.0921 35.6576 53.5635 34.3621 52.5915 33.4075Z" fill="url(#paint0_radial_661_25570)"/>
<g opacity="0.5" filter="url(#filter0_f_661_25570)">
<path d="M47.3382 34.6357L46.5253 33.8231C46.2092 33.5071 46.0285 33.0783 46.0285 32.6279V31.4643C46.0285 29.5908 44.5043 28.0684 42.6302 28.0684H41.4673C41.0157 28.0684 40.5866 27.8866 40.2705 27.5706L39.4463 26.7479C38.1141 25.4274 35.9577 25.4274 34.6367 26.758L33.8238 27.5706C33.5077 27.8866 33.0787 28.0684 32.627 28.0684H31.4642C29.59 28.0684 28.0658 29.5908 28.0658 31.4643V32.6155C28.0658 33.0783 27.8852 33.5071 27.569 33.8231L26.7449 34.6482C25.4239 35.9788 25.4352 38.1356 26.7561 39.4549L27.569 40.2562C27.8852 40.5835 28.0658 41.0124 28.0658 41.465V42.6263C28.0658 44.4998 29.59 46.0245 31.4642 46.0245H32.627C33.0787 46.0245 33.5077 46.204 33.8238 46.52L34.648 47.345C35.3141 47.9996 36.1835 48.3258 37.0528 48.3258C37.9221 48.3258 38.7915 47.9996 39.4576 47.3326L40.2705 46.52C40.5866 46.204 41.0157 46.0245 41.4673 46.0245H42.6302C44.5043 46.0245 46.0285 44.4998 46.0285 42.6263V41.465C46.0285 41.0124 46.2092 40.5835 46.5253 40.2675L47.3269 39.4662C47.3382 39.4549 47.3495 39.4447 47.3608 39.4323C47.993 38.7902 48.343 37.9313 48.3317 37.0284C48.3317 36.1255 47.9817 35.2678 47.3382 34.6357Z" fill="url(#paint1_radial_661_25570)"/>
</g>
<g filter="url(#filter1_b_661_25570)">
<mask id="path-4-outside-1_661_25570" maskUnits="userSpaceOnUse" x="24.9141" y="24.916" width="36" height="36" fill="black">
<rect fill="white" x="24.9141" y="24.916" width="36" height="36"/>
<path d="M58.5056 39.3235L57.2778 38.0962C56.8003 37.6189 56.5275 36.9712 56.5275 36.291V34.5335C56.5275 31.7039 54.2254 29.4043 51.3947 29.4043H49.6383C48.9562 29.4043 48.3082 29.1299 47.8307 28.6526L46.5859 27.4099C44.5737 25.4155 41.3167 25.4155 39.3216 27.4253L38.0938 28.6526C37.6163 29.1299 36.9683 29.4043 36.2862 29.4043H34.5298C31.6991 29.4043 29.397 31.7039 29.397 34.5335V36.2723C29.397 36.9712 29.1242 37.6189 28.6467 38.0962L27.4019 39.3423C25.4068 41.352 25.4238 44.6096 27.419 46.6023L28.6467 47.8126C29.1242 48.3069 29.397 48.9547 29.397 49.6382V51.3923C29.397 54.222 31.6991 56.5249 34.5298 56.5249H36.2862C36.9683 56.5249 37.6163 56.7959 38.0938 57.2732L39.3386 58.5193C40.3447 59.508 41.6578 60.0006 42.9708 60.0006C44.2838 60.0006 45.5969 59.508 46.603 58.5006L47.8307 57.2732C48.3082 56.7959 48.9562 56.5249 49.6383 56.5249H51.3947C54.2254 56.5249 56.5275 54.222 56.5275 51.3923V49.6382C56.5275 48.9547 56.8003 48.3069 57.2778 47.8296L58.4885 46.6193C58.5056 46.6023 58.5226 46.5869 58.5397 46.5682C59.4946 45.5983 60.0232 44.301 60.0062 42.9373C60.0062 41.5736 59.4775 40.2781 58.5056 39.3235Z"/>
</mask>
<path d="M58.5056 39.3235L57.2778 38.0962C56.8003 37.6189 56.5275 36.9712 56.5275 36.291V34.5335C56.5275 31.7039 54.2254 29.4043 51.3947 29.4043H49.6383C48.9562 29.4043 48.3082 29.1299 47.8307 28.6526L46.5859 27.4099C44.5737 25.4155 41.3167 25.4155 39.3216 27.4253L38.0938 28.6526C37.6163 29.1299 36.9683 29.4043 36.2862 29.4043H34.5298C31.6991 29.4043 29.397 31.7039 29.397 34.5335V36.2723C29.397 36.9712 29.1242 37.6189 28.6467 38.0962L27.4019 39.3423C25.4068 41.352 25.4238 44.6096 27.419 46.6023L28.6467 47.8126C29.1242 48.3069 29.397 48.9547 29.397 49.6382V51.3923C29.397 54.222 31.6991 56.5249 34.5298 56.5249H36.2862C36.9683 56.5249 37.6163 56.7959 38.0938 57.2732L39.3386 58.5193C40.3447 59.508 41.6578 60.0006 42.9708 60.0006C44.2838 60.0006 45.5969 59.508 46.603 58.5006L47.8307 57.2732C48.3082 56.7959 48.9562 56.5249 49.6383 56.5249H51.3947C54.2254 56.5249 56.5275 54.222 56.5275 51.3923V49.6382C56.5275 48.9547 56.8003 48.3069 57.2778 47.8296L58.4885 46.6193C58.5056 46.6023 58.5226 46.5869 58.5397 46.5682C59.4946 45.5983 60.0232 44.301 60.0062 42.9373C60.0062 41.5736 59.4775 40.2781 58.5056 39.3235Z" fill="#3D03B7" fill-opacity="0.35"/>
<path d="M57.2778 38.0962L57.6108 37.763H57.6108L57.2778 38.0962ZM47.8307 28.6526L48.1638 28.3194L48.1636 28.3192L47.8307 28.6526ZM46.5859 27.4099L46.9187 27.0765L46.9175 27.0753L46.5859 27.4099ZM39.3216 27.4253L39.6546 27.7584L39.6559 27.7572L39.3216 27.4253ZM38.0938 28.6526L38.4268 28.9858L38.0938 28.6526ZM28.6467 38.0962L28.3137 37.763L28.3135 37.7633L28.6467 38.0962ZM27.4019 39.3423L27.0686 39.0093L27.0676 39.0104L27.4019 39.3423ZM27.419 46.6023L27.086 46.9356L27.0882 46.9378L27.419 46.6023ZM28.6467 47.8126L28.9857 47.4852L28.9775 47.4771L28.6467 47.8126ZM38.0938 57.2732L38.4271 56.9403L38.4268 56.9401L38.0938 57.2732ZM39.3386 58.5193L39.0053 58.8523L39.0084 58.8553L39.3386 58.5193ZM46.603 58.5006L46.2699 58.1674L46.2696 58.1677L46.603 58.5006ZM47.8307 57.2732L48.1638 57.6064V57.6064L47.8307 57.2732ZM57.2778 47.8296L57.6108 48.1628H57.6108L57.2778 47.8296ZM58.4885 46.6193L58.1554 46.2862L58.4885 46.6193ZM58.5397 46.5682L58.204 46.2377C58.1996 46.2421 58.1953 46.2466 58.1911 46.2512L58.5397 46.5682ZM60.0062 42.9373H59.535L59.5351 42.9432L60.0062 42.9373ZM58.5056 39.3235L58.1725 39.6567L58.1755 39.6597L58.5056 39.3235ZM58.8386 38.9904L57.6108 37.763L56.9447 38.4294L58.1725 39.6567L58.8386 38.9904ZM57.6108 37.763C57.2206 37.3729 56.9986 36.8446 56.9986 36.291H56.0564C56.0564 37.0977 56.38 37.8649 56.9447 38.4294L57.6108 37.763ZM56.9986 36.291V34.5335H56.0564V36.291H56.9986ZM56.9986 34.5335C56.9986 31.4433 54.4852 28.9332 51.3947 28.9332V29.8754C53.9656 29.8754 56.0564 31.9644 56.0564 34.5335H56.9986ZM51.3947 28.9332H49.6383V29.8754H51.3947V28.9332ZM49.6383 28.9332C49.0833 28.9332 48.5545 28.71 48.1638 28.3194L47.4977 28.9858C48.0619 29.5498 48.8291 29.8754 49.6383 29.8754V28.9332ZM48.1636 28.3192L46.9187 27.0765L46.2531 27.7433L47.4979 28.986L48.1636 28.3192ZM46.9175 27.0753C44.7223 24.8995 41.1672 24.8974 38.9872 27.0934L39.6559 27.7572C41.4662 25.9336 44.4251 25.9315 46.2543 27.7445L46.9175 27.0753ZM38.9885 27.0921L37.7607 28.3194L38.4268 28.9858L39.6546 27.7584L38.9885 27.0921ZM37.7607 28.3194C37.37 28.71 36.8412 28.9332 36.2862 28.9332V29.8754C37.0954 29.8754 37.8626 29.5498 38.4268 28.9858L37.7607 28.3194ZM36.2862 28.9332H34.5298V29.8754H36.2862V28.9332ZM34.5298 28.9332C31.4393 28.9332 28.926 31.4433 28.926 34.5335H29.8681C29.8681 31.9644 31.9589 29.8754 34.5298 29.8754V28.9332ZM28.926 34.5335V36.2723H29.8681V34.5335H28.926ZM28.926 36.2723C28.926 36.8464 28.7026 37.3742 28.3137 37.763L28.9798 38.4294C29.5458 37.8636 29.8681 37.0959 29.8681 36.2723H28.926ZM28.3135 37.7633L27.0686 39.0093L27.7352 39.6752L28.98 38.4292L28.3135 37.7633ZM27.0676 39.0104C24.8888 41.2051 24.9079 44.7601 27.0861 46.9356L27.7519 46.269C25.9397 44.459 25.9247 41.499 27.7362 39.6742L27.0676 39.0104ZM27.0882 46.9378L28.316 48.1481L28.9775 47.4771L27.7497 46.2668L27.0882 46.9378ZM28.3079 48.1399C28.7044 48.5504 28.926 49.0823 28.926 49.6382H29.8681C29.8681 48.8271 29.544 48.0634 28.9856 47.4853L28.3079 48.1399ZM28.926 49.6382V51.3923H29.8681V49.6382H28.926ZM28.926 51.3923C28.926 54.4821 31.4389 56.996 34.5298 56.996V56.0538C31.9594 56.0538 29.8681 53.9618 29.8681 51.3923H28.926ZM34.5298 56.996H36.2862V56.0538H34.5298V56.996ZM36.2862 56.996C36.8428 56.996 37.3712 57.217 37.7607 57.6064L38.4268 56.9401C37.8615 56.3749 37.0938 56.0538 36.2862 56.0538V56.996ZM37.7605 57.6062L39.0053 58.8523L39.6719 58.1864L38.4271 56.9403L37.7605 57.6062ZM39.0084 58.8553C40.1067 59.9346 41.5401 60.4717 42.9708 60.4717V59.5295C41.7754 59.5295 40.5827 59.0814 39.6688 58.1833L39.0084 58.8553ZM42.9708 60.4717C44.402 60.4717 45.8371 59.9341 46.9363 58.8335L46.2696 58.1677C45.3566 59.0819 44.1656 59.5295 42.9708 59.5295V60.4717ZM46.936 58.8338L48.1638 57.6064L47.4977 56.9401L46.2699 58.1674L46.936 58.8338ZM48.1638 57.6064C48.5533 57.217 49.0817 56.996 49.6383 56.996V56.0538C48.8307 56.0538 48.0631 56.3749 47.4977 56.9401L48.1638 57.6064ZM49.6383 56.996H51.3947V56.0538H49.6383V56.996ZM51.3947 56.996C54.4856 56.996 56.9986 54.4821 56.9986 51.3923H56.0564C56.0564 53.9618 53.9652 56.0538 51.3947 56.0538V56.996ZM56.9986 51.3923V49.6382H56.0564V51.3923H56.9986ZM56.9986 49.6382C56.9986 49.0809 57.2208 48.5526 57.6108 48.1628L56.9447 47.4964C56.3798 48.0612 56.0564 48.8284 56.0564 49.6382H56.9986ZM57.6108 48.1628L58.8216 46.9525L58.1554 46.2862L56.9447 47.4964L57.6108 48.1628ZM58.8216 46.9525C58.8276 46.9465 58.8283 46.946 58.8429 46.9318C58.854 46.9209 58.8703 46.9048 58.8882 46.8852L58.1911 46.2512C58.192 46.2503 58.1912 46.2512 58.1853 46.257C58.1816 46.2606 58.1794 46.2627 58.1736 46.2684C58.1687 46.2731 58.1624 46.2793 58.1554 46.2862L58.8216 46.9525ZM58.8754 46.8987C59.9175 45.8402 60.4959 44.4223 60.4772 42.9315L59.5351 42.9432C59.5506 44.1798 59.0717 45.3563 58.204 46.2377L58.8754 46.8987ZM60.4773 42.9373C60.4773 41.4508 59.9004 40.0331 58.8357 38.9874L58.1755 39.6597C59.0547 40.5232 59.5351 41.6965 59.5351 42.9373H60.4773Z" fill="url(#paint2_linear_661_25570)" mask="url(#path-4-outside-1_661_25570)"/>
</g>
<g filter="url(#filter2_bd_661_25570)">
<mask id="path-6-inside-2_661_25570" fill="white">
<path fill-rule="evenodd" clip-rule="evenodd" d="M39.6288 48.3919C39.356 48.6817 38.9809 48.8351 38.5716 48.8351C38.1794 48.8351 37.8042 48.6817 37.5314 48.3919C36.9516 47.8123 36.9516 46.8578 37.5314 46.2782L46.2963 37.5164C46.8761 36.9385 47.814 36.9385 48.3938 37.5164C48.9736 38.096 48.9736 39.0523 48.3938 39.6318L39.6288 48.3919ZM47.3536 48.8352C46.5181 48.8352 45.853 48.1704 45.853 47.3351C45.853 46.5186 46.5181 45.8521 47.3536 45.8521C48.1721 45.8521 48.8372 46.5186 48.8372 47.3351C48.8372 48.1704 48.1721 48.8352 47.3536 48.8352ZM40.0721 38.5733C40.0721 37.7551 39.407 37.0902 38.5885 37.0902C37.77 37.0902 37.0879 37.7551 37.0879 38.5733C37.0879 39.4102 37.77 40.0733 38.5885 40.0733C39.407 40.0733 40.0721 39.4102 40.0721 38.5733Z"/>
</mask>
<path fill-rule="evenodd" clip-rule="evenodd" d="M39.6288 48.3919C39.356 48.6817 38.9809 48.8351 38.5716 48.8351C38.1794 48.8351 37.8042 48.6817 37.5314 48.3919C36.9516 47.8123 36.9516 46.8578 37.5314 46.2782L46.2963 37.5164C46.8761 36.9385 47.814 36.9385 48.3938 37.5164C48.9736 38.096 48.9736 39.0523 48.3938 39.6318L39.6288 48.3919ZM47.3536 48.8352C46.5181 48.8352 45.853 48.1704 45.853 47.3351C45.853 46.5186 46.5181 45.8521 47.3536 45.8521C48.1721 45.8521 48.8372 46.5186 48.8372 47.3351C48.8372 48.1704 48.1721 48.8352 47.3536 48.8352ZM40.0721 38.5733C40.0721 37.7551 39.407 37.0902 38.5885 37.0902C37.77 37.0902 37.0879 37.7551 37.0879 38.5733C37.0879 39.4102 37.77 40.0733 38.5885 40.0733C39.407 40.0733 40.0721 39.4102 40.0721 38.5733Z" fill="url(#paint3_linear_661_25570)"/>
<path d="M39.6288 48.3919L39.4956 48.2586L39.4916 48.2627L39.6288 48.3919ZM37.5314 48.3919L37.6687 48.2627L37.6646 48.2586L37.5314 48.3919ZM37.5314 46.2782L37.3982 46.1449L37.5314 46.2782ZM46.2963 37.5164L46.1633 37.3829L46.1631 37.3831L46.2963 37.5164ZM48.3938 37.5164L48.527 37.3831L48.5268 37.3829L48.3938 37.5164ZM48.3938 39.6318L48.527 39.7651L48.527 39.7651L48.3938 39.6318ZM38.5716 49.0236C39.0292 49.0236 39.4552 48.8513 39.766 48.5211L39.4916 48.2627C39.2568 48.5121 38.9325 48.6467 38.5716 48.6467V49.0236ZM37.3942 48.5211C37.7043 48.8504 38.1299 49.0236 38.5716 49.0236V48.6467C38.2289 48.6467 37.9042 48.513 37.6686 48.2627L37.3942 48.5211ZM37.3982 46.1449C36.7448 46.7981 36.7448 47.872 37.3982 48.5252L37.6646 48.2586C37.1585 47.7527 37.1585 46.9174 37.6646 46.4115L37.3982 46.1449ZM46.1631 37.3831L37.3982 46.1449L37.6646 46.4115L46.4296 37.6497L46.1631 37.3831ZM48.5268 37.3829C47.8735 36.7318 46.8166 36.7318 46.1633 37.3829L46.4294 37.6499C46.9356 37.1453 47.7545 37.1453 48.2608 37.6499L48.5268 37.3829ZM48.527 39.7651C49.1804 39.112 49.1804 38.0363 48.527 37.3831L48.2606 37.6497C48.7667 38.1557 48.7667 38.9926 48.2606 39.4986L48.527 39.7651ZM39.7621 48.5252L48.527 39.7651L48.2606 39.4986L39.4956 48.2586L39.7621 48.5252ZM45.6646 47.3351C45.6646 48.2745 46.4141 49.0236 47.3536 49.0236V48.6468C46.6221 48.6468 46.0415 48.0663 46.0415 47.3351H45.6646ZM47.3536 45.6637C46.4153 45.6637 45.6646 46.4132 45.6646 47.3351H46.0415C46.0415 46.624 46.6208 46.0405 47.3536 46.0405V45.6637ZM49.0256 47.3351C49.0256 46.4146 48.2763 45.6637 47.3536 45.6637V46.0405C48.068 46.0405 48.6488 46.6226 48.6488 47.3351H49.0256ZM47.3536 49.0236C48.2776 49.0236 49.0256 48.2731 49.0256 47.3351H48.6488C48.6488 48.0677 48.0667 48.6468 47.3536 48.6468V49.0236ZM38.5885 37.2787C39.303 37.2787 39.8836 37.8592 39.8836 38.5733H40.2605C40.2605 37.6509 39.511 36.9018 38.5885 36.9018V37.2787ZM37.2763 38.5733C37.2763 37.862 37.8712 37.2787 38.5885 37.2787V36.9018C37.6688 36.9018 36.8995 37.6481 36.8995 38.5733H37.2763ZM38.5885 39.8849C37.8725 39.8849 37.2763 39.3046 37.2763 38.5733H36.8995C36.8995 39.5159 37.6675 40.2618 38.5885 40.2618V39.8849ZM39.8836 38.5733C39.8836 39.3074 39.3018 39.8849 38.5885 39.8849V40.2618C39.5123 40.2618 40.2605 39.5131 40.2605 38.5733H39.8836Z" fill="url(#paint4_linear_661_25570)" mask="url(#path-6-inside-2_661_25570)"/>
</g>
<defs>
<filter id="filter0_f_661_25570" x="14.9245" y="14.9235" width="44.2428" height="44.2379" filterUnits="userSpaceOnUse" color-interpolation-filters="sRGB">
<feFlood flood-opacity="0" result="BackgroundImageFix"/>
<feBlend mode="normal" in="SourceGraphic" in2="BackgroundImageFix" result="shape"/>
<feGaussianBlur stdDeviation="5.41763" result="effect1_foregroundBlur_661_25570"/>
</filter>
<filter id="filter1_b_661_25570" x="14.137" y="14.139" width="57.6479" height="57.6391" filterUnits="userSpaceOnUse" color-interpolation-filters="sRGB">
<feFlood flood-opacity="0" result="BackgroundImageFix"/>
<feGaussianBlur in="BackgroundImageFix" stdDeviation="5.65318"/>
<feComposite in2="SourceAlpha" operator="in" result="effect1_backgroundBlur_661_25570"/>
<feBlend mode="normal" in="SourceGraphic" in2="effect1_backgroundBlur_661_25570" result="shape"/>
</filter>
<filter id="filter2_bd_661_25570" x="30.0214" y="30.0165" width="25.8829" height="25.8849" filterUnits="userSpaceOnUse" color-interpolation-filters="sRGB">
<feFlood flood-opacity="0" result="BackgroundImageFix"/>
<feGaussianBlur in="BackgroundImageFix" stdDeviation="3.53324"/>
<feComposite in2="SourceAlpha" operator="in" result="effect1_backgroundBlur_661_25570"/>
<feColorMatrix in="SourceAlpha" type="matrix" values="0 0 0 0 0 0 0 0 0 0 0 0 0 0 0 0 0 0 127 0" result="hardAlpha"/>
<feOffset dx="2.35549" dy="2.35549"/>
<feGaussianBlur stdDeviation="2.35549"/>
<feColorMatrix type="matrix" values="0 0 0 0 0.239216 0 0 0 0 0.0117647 0 0 0 0 0.717647 0 0 0 0.5 0"/>
<feBlend mode="normal" in2="effect1_backgroundBlur_661_25570" result="effect2_dropShadow_661_25570"/>
<feBlend mode="normal" in="SourceGraphic" in2="effect2_dropShadow_661_25570" result="shape"/>
</filter>
<radialGradient id="paint0_radial_661_25570" cx="0" cy="0" r="1" gradientUnits="userSpaceOnUse" gradientTransform="translate(37.0463 37.0423) rotate(90) scale(17.0423 17.0463)">
<stop stop-color="#3D03B7" stop-opacity="0"/>
<stop offset="1" stop-color="#3D03B7"/>
</radialGradient>
<radialGradient id="paint1_radial_661_25570" cx="0" cy="0" r="1" gradientUnits="userSpaceOnUse" gradientTransform="translate(37.0459 37.0423) rotate(90) scale(11.2835 11.2861)">
<stop stop-color="#3D03B7" stop-opacity="0"/>
<stop offset="1" stop-color="#3D03B7"/>
</radialGradient>
<linearGradient id="paint2_linear_661_25570" x1="25.8146" y1="25.6842" x2="53.0584" y2="56.8389" gradientUnits="userSpaceOnUse">
<stop stop-color="white" stop-opacity="0.4"/>
<stop offset="1" stop-color="white" stop-opacity="0"/>
</linearGradient>
<linearGradient id="paint3_linear_661_25570" x1="48.0042" y1="39.2052" x2="34.9166" y2="39.6318" gradientUnits="userSpaceOnUse">
<stop stop-color="white"/>
<stop offset="1" stop-color="white" stop-opacity="0.2"/>
</linearGradient>
<linearGradient id="paint4_linear_661_25570" x1="38.9582" y1="38.4522" x2="46.4552" y2="47.7351" gradientUnits="userSpaceOnUse">
<stop stop-color="white" stop-opacity="0.25"/>
<stop offset="1" stop-color="white" stop-opacity="0"/>
</linearGradient>
</defs>
</svg>
