<svg width="47" height="47" viewBox="0 0 47 47" fill="none" xmlns="http://www.w3.org/2000/svg">
<g id="Discount">
<g id="Bg">
<path id="Discount_2" d="M38.592 19.407L37.3643 18.1797C36.8868 17.7024 36.614 17.0547 36.614 16.3745V14.617C36.614 11.7874 34.3119 9.48782 31.4812 9.48782H29.7248C29.0427 9.48782 28.3947 9.21338 27.9172 8.73608L26.6724 7.49341C24.6602 5.499 21.4032 5.499 19.4081 7.50875L18.1803 8.73608C17.7028 9.21338 17.0548 9.48782 16.3727 9.48782H14.6163C11.7856 9.48782 9.48354 11.7874 9.48354 14.617V16.3558C9.48354 17.0547 9.2107 17.7024 8.73323 18.1797L7.4884 19.4258C5.49327 21.4355 5.51032 24.6931 7.50545 26.6858L8.73323 27.8961C9.2107 28.3904 9.48354 29.0382 9.48354 29.7217V31.4758C9.48354 34.3055 11.7856 36.6084 14.6163 36.6084H16.3727C17.0548 36.6084 17.7028 36.8794 18.1803 37.3567L19.4251 38.6028C20.4312 39.5915 21.7442 40.0841 23.0573 40.0841C24.3703 40.0841 25.6833 39.5915 26.6894 38.5841L27.9172 37.3567C28.3947 36.8794 29.0427 36.6084 29.7248 36.6084H31.4812C34.3119 36.6084 36.614 34.3055 36.614 31.4758V29.7217C36.614 29.0382 36.8868 28.3904 37.3643 27.9131L38.575 26.7028C38.592 26.6858 38.6091 26.6704 38.6262 26.6517C39.5811 25.6818 40.1097 24.3845 40.0927 23.0208C40.0927 21.6571 39.564 20.3616 38.592 19.407Z" fill="url(#paint0_radial_1052_2487)"/>
<g id="Discount_3" opacity="0.5" filter="url(#filter0_f_1052_2487)">
<path d="M33.3387 20.6353L32.5258 19.8226C32.2097 19.5066 32.0291 19.0778 32.0291 18.6275V17.4639C32.0291 15.5904 30.5049 14.0679 28.6307 14.0679H27.4678C27.0162 14.0679 26.5872 13.8862 26.2711 13.5701L25.4469 12.7474C24.1146 11.4269 21.9582 11.4269 20.6373 12.7575L19.8244 13.5701C19.5082 13.8862 19.0792 14.0679 18.6276 14.0679H17.4647C15.5905 14.0679 14.0664 15.5904 14.0664 17.4639V18.615C14.0664 19.0778 13.8857 19.5066 13.5696 19.8226L12.7454 20.6477C11.4244 21.9783 11.4357 24.1351 12.7567 25.4544L13.5696 26.2557C13.8857 26.583 14.0664 27.0119 14.0664 27.4645V28.6258C14.0664 30.4993 15.5905 32.0241 17.4647 32.0241H18.6276C19.0792 32.0241 19.5082 32.2035 19.8244 32.5195L20.6485 33.3445C21.3147 33.9991 22.184 34.3253 23.0534 34.3253C23.9227 34.3253 24.792 33.9991 25.4582 33.3321L26.2711 32.5195C26.5872 32.2035 27.0162 32.0241 27.4678 32.0241H28.6307C30.5049 32.0241 32.0291 30.4993 32.0291 28.6258V27.4645C32.0291 27.0119 32.2097 26.583 32.5258 26.267L33.3274 25.4657C33.3387 25.4544 33.35 25.4443 33.3613 25.4318C33.9936 24.7897 34.3436 23.9308 34.3323 23.0279C34.3323 22.125 33.9823 21.2673 33.3387 20.6353Z" fill="url(#paint1_radial_1052_2487)"/>
</g>
</g>
<g id="Icon">
<g id="Discount_4" filter="url(#filter1_b_1052_2487)">
<mask id="path-3-outside-1_1052_2487" maskUnits="userSpaceOnUse" x="10.9139" y="10.915" width="36" height="36" fill="black">
<rect fill="white" x="10.9139" y="10.915" width="36" height="36"/>
<path d="M44.5054 25.3226L43.2776 24.0952C42.8001 23.6179 42.5273 22.9702 42.5273 22.29V20.5326C42.5273 17.7029 40.2252 15.4033 37.3945 15.4033H35.6381C34.956 15.4033 34.308 15.1289 33.8306 14.6516L32.5857 13.4089C30.5735 11.4145 27.3165 11.4145 25.3214 13.4243L24.0936 14.6516C23.6161 15.1289 22.9681 15.4033 22.2861 15.4033H20.5296C17.6989 15.4033 15.3969 17.7029 15.3969 20.5326V22.2713C15.3969 22.9702 15.124 23.6179 14.6466 24.0952L13.4017 25.3413C11.4066 27.3511 11.4236 30.6086 13.4188 32.6013L14.6466 33.8116C15.124 34.3059 15.3969 34.9537 15.3969 35.6373V37.3913C15.3969 40.221 17.6989 42.5239 20.5296 42.5239H22.2861C22.9681 42.5239 23.6161 42.795 24.0936 43.2723L25.3384 44.5184C26.3445 45.507 27.6576 45.9997 28.9706 45.9997C30.2836 45.9997 31.5967 45.507 32.6028 44.4996L33.8306 43.2723C34.308 42.795 34.956 42.5239 35.6381 42.5239H37.3945C40.2252 42.5239 42.5273 40.221 42.5273 37.3913V35.6373C42.5273 34.9537 42.8001 34.3059 43.2776 33.8286L44.4883 32.6184C44.5054 32.6013 44.5224 32.586 44.5395 32.5672C45.4944 31.5973 46.023 30.3001 46.006 28.9364C46.006 27.5727 45.4774 26.2772 44.5054 25.3226Z"/>
</mask>
<path d="M44.5054 25.3226L43.2776 24.0952C42.8001 23.6179 42.5273 22.9702 42.5273 22.29V20.5326C42.5273 17.7029 40.2252 15.4033 37.3945 15.4033H35.6381C34.956 15.4033 34.308 15.1289 33.8306 14.6516L32.5857 13.4089C30.5735 11.4145 27.3165 11.4145 25.3214 13.4243L24.0936 14.6516C23.6161 15.1289 22.9681 15.4033 22.2861 15.4033H20.5296C17.6989 15.4033 15.3969 17.7029 15.3969 20.5326V22.2713C15.3969 22.9702 15.124 23.6179 14.6466 24.0952L13.4017 25.3413C11.4066 27.3511 11.4236 30.6086 13.4188 32.6013L14.6466 33.8116C15.124 34.3059 15.3969 34.9537 15.3969 35.6373V37.3913C15.3969 40.221 17.6989 42.5239 20.5296 42.5239H22.2861C22.9681 42.5239 23.6161 42.795 24.0936 43.2723L25.3384 44.5184C26.3445 45.507 27.6576 45.9997 28.9706 45.9997C30.2836 45.9997 31.5967 45.507 32.6028 44.4996L33.8306 43.2723C34.308 42.795 34.956 42.5239 35.6381 42.5239H37.3945C40.2252 42.5239 42.5273 40.221 42.5273 37.3913V35.6373C42.5273 34.9537 42.8001 34.3059 43.2776 33.8286L44.4883 32.6184C44.5054 32.6013 44.5224 32.586 44.5395 32.5672C45.4944 31.5973 46.023 30.3001 46.006 28.9364C46.006 27.5727 45.4774 26.2772 44.5054 25.3226Z" fill="#3D03B7" fill-opacity="0.35"/>
<path d="M43.2776 24.0952L43.6107 23.7621H43.6107L43.2776 24.0952ZM33.8306 14.6516L34.1636 14.3184L34.1634 14.3182L33.8306 14.6516ZM32.5857 13.4089L32.9186 13.0755L32.9174 13.0743L32.5857 13.4089ZM25.3214 13.4243L25.6544 13.7575L25.6557 13.7562L25.3214 13.4243ZM24.0936 14.6516L24.4267 14.9848L24.0936 14.6516ZM14.6466 24.0952L14.3135 23.7621L14.3133 23.7623L14.6466 24.0952ZM13.4017 25.3413L13.0684 25.0084L13.0674 25.0094L13.4017 25.3413ZM13.4188 32.6013L13.0859 32.9346L13.0881 32.9368L13.4188 32.6013ZM14.6466 33.8116L14.9855 33.4842L14.9773 33.4761L14.6466 33.8116ZM24.0936 43.2723L24.4269 42.9393L24.4267 42.9391L24.0936 43.2723ZM25.3384 44.5184L25.0051 44.8513L25.0082 44.8544L25.3384 44.5184ZM32.6028 44.4996L32.2697 44.1664L32.2694 44.1667L32.6028 44.4996ZM33.8306 43.2723L34.1636 43.6054V43.6054L33.8306 43.2723ZM43.2776 33.8286L43.6107 34.1618H43.6107L43.2776 33.8286ZM44.4883 32.6184L44.1553 32.2852L44.4883 32.6184ZM44.5395 32.5672L44.2038 32.2367C44.1994 32.2411 44.1951 32.2457 44.191 32.2503L44.5395 32.5672ZM46.006 28.9364H45.5349L45.5349 28.9423L46.006 28.9364ZM44.5054 25.3226L44.1723 25.6558L44.1753 25.6587L44.5054 25.3226ZM44.8384 24.9894L43.6107 23.7621L42.9445 24.4284L44.1723 25.6557L44.8384 24.9894ZM43.6107 23.7621C43.2204 23.372 42.9984 22.8436 42.9984 22.29H42.0562C42.0562 23.0968 42.3798 23.8639 42.9445 24.4284L43.6107 23.7621ZM42.9984 22.29V20.5326H42.0562V22.29H42.9984ZM42.9984 20.5326C42.9984 17.4423 40.485 14.9322 37.3945 14.9322V15.8744C39.9654 15.8744 42.0562 17.9634 42.0562 20.5326H42.9984ZM37.3945 14.9322H35.6381V15.8744H37.3945V14.9322ZM35.6381 14.9322C35.0831 14.9322 34.5543 14.709 34.1636 14.3184L33.4975 14.9848C34.0617 15.5488 34.8289 15.8744 35.6381 15.8744V14.9322ZM34.1634 14.3182L32.9185 13.0755L32.2529 13.7423L33.4977 14.985L34.1634 14.3182ZM32.9174 13.0743C30.7221 10.8985 27.167 10.8965 24.9871 13.0924L25.6557 13.7562C27.466 11.9326 30.425 11.9306 32.2541 13.7435L32.9174 13.0743ZM24.9883 13.0911L23.7606 14.3184L24.4267 14.9848L25.6544 13.7575L24.9883 13.0911ZM23.7606 14.3184C23.3699 14.709 22.841 14.9322 22.2861 14.9322V15.8744C23.0953 15.8744 23.8624 15.5488 24.4267 14.9848L23.7606 14.3184ZM22.2861 14.9322H20.5296V15.8744H22.2861V14.9322ZM20.5296 14.9322C17.4391 14.9322 14.9258 17.4423 14.9258 20.5326H15.868C15.868 17.9634 17.9588 15.8744 20.5296 15.8744V14.9322ZM14.9258 20.5326V22.2713H15.868V20.5326H14.9258ZM14.9258 22.2713C14.9258 22.8454 14.7024 23.3733 14.3135 23.7621L14.9796 24.4284C15.5456 23.8626 15.868 23.0949 15.868 22.2713H14.9258ZM14.3133 23.7623L13.0684 25.0084L13.735 25.6743L14.9798 24.4282L14.3133 23.7623ZM13.0674 25.0094C10.8887 27.2041 10.9077 30.7592 13.0859 32.9346L13.7517 32.268C11.9396 30.4581 11.9245 27.498 13.7361 25.6732L13.0674 25.0094ZM13.0881 32.9368L14.3158 34.1471L14.9773 33.4761L13.7495 32.2658L13.0881 32.9368ZM14.3077 34.1389C14.7042 34.5494 14.9258 35.0813 14.9258 35.6373H15.868C15.868 34.8261 15.5438 34.0624 14.9854 33.4843L14.3077 34.1389ZM14.9258 35.6373V37.3913H15.868V35.6373H14.9258ZM14.9258 37.3913C14.9258 40.4811 17.4387 42.995 20.5296 42.995V42.0528C17.9592 42.0528 15.868 39.9609 15.868 37.3913H14.9258ZM20.5296 42.995H22.2861V42.0528H20.5296V42.995ZM22.2861 42.995C22.8426 42.995 23.371 43.216 23.7606 43.6054L24.4267 42.9391C23.8613 42.3739 23.0937 42.0528 22.2861 42.0528V42.995ZM23.7603 43.6052L25.0052 44.8513L25.6717 44.1854L24.4269 42.9393L23.7603 43.6052ZM25.0082 44.8544C26.1065 45.9336 27.5399 46.4708 28.9706 46.4708V45.5286C27.7752 45.5286 26.5825 45.0804 25.6686 44.1823L25.0082 44.8544ZM28.9706 46.4708C30.4018 46.4708 31.8369 45.9332 32.9361 44.8325L32.2694 44.1667C31.3564 45.0809 30.1655 45.5286 28.9706 45.5286V46.4708ZM32.9358 44.8328L34.1636 43.6054L33.4975 42.9391L32.2697 44.1664L32.9358 44.8328ZM34.1636 43.6054C34.5532 43.216 35.0815 42.995 35.6381 42.995V42.0528C34.8305 42.0528 34.0629 42.3739 33.4975 42.9391L34.1636 43.6054ZM35.6381 42.995H37.3945V42.0528H35.6381V42.995ZM37.3945 42.995C40.4854 42.995 42.9984 40.4811 42.9984 37.3913H42.0562C42.0562 39.9609 39.965 42.0528 37.3945 42.0528V42.995ZM42.9984 37.3913V35.6373H42.0562V37.3913H42.9984ZM42.9984 35.6373C42.9984 35.0799 43.2207 34.5517 43.6107 34.1618L42.9445 33.4955C42.3796 34.0602 42.0562 34.8274 42.0562 35.6373H42.9984ZM43.6107 34.1618L44.8214 32.9515L44.1553 32.2852L42.9445 33.4955L43.6107 34.1618ZM44.8214 32.9515C44.8274 32.9455 44.8281 32.9451 44.8427 32.9308C44.8538 32.92 44.8701 32.9038 44.888 32.8842L44.191 32.2503C44.1918 32.2493 44.191 32.2503 44.1851 32.2561C44.1815 32.2596 44.1792 32.2618 44.1734 32.2674C44.1685 32.2721 44.1622 32.2783 44.1553 32.2852L44.8214 32.9515ZM44.8752 32.8977C45.9173 31.8393 46.4957 30.4213 46.4771 28.9305L45.5349 28.9423C45.5504 30.1788 45.0715 31.3553 44.2038 32.2367L44.8752 32.8977ZM46.4771 28.9364C46.4771 27.4499 45.9002 26.0321 44.8355 24.9865L44.1753 25.6587C45.0545 26.5222 45.5349 27.6955 45.5349 28.9364H46.4771Z" fill="url(#paint2_linear_1052_2487)" mask="url(#path-3-outside-1_1052_2487)"/>
</g>
<g id="Union" filter="url(#filter2_bd_1052_2487)">
<mask id="path-5-inside-2_1052_2487" fill="white">
<path fill-rule="evenodd" clip-rule="evenodd" d="M25.6287 34.3909C25.3559 34.6807 24.9807 34.8341 24.5715 34.8341C24.1793 34.8341 23.8041 34.6807 23.5313 34.3909C22.9515 33.8114 22.9515 32.8568 23.5313 32.2772L32.2962 23.5154C32.876 22.9376 33.8139 22.9376 34.3937 23.5154C34.9735 24.095 34.9735 25.0513 34.3937 25.6309L25.6287 34.3909ZM33.3535 34.8342C32.5179 34.8342 31.8529 34.1694 31.8529 33.3341C31.8529 32.5176 32.5179 31.8511 33.3535 31.8511C34.172 31.8511 34.8371 32.5176 34.8371 33.3341C34.8371 34.1694 34.172 34.8342 33.3535 34.8342ZM26.0719 24.5723C26.0719 23.7541 25.4069 23.0893 24.5884 23.0893C23.7699 23.0893 23.0878 23.7541 23.0878 24.5723C23.0878 25.4093 23.7699 26.0724 24.5884 26.0724C25.4069 26.0724 26.0719 25.4093 26.0719 24.5723Z"/>
</mask>
<path fill-rule="evenodd" clip-rule="evenodd" d="M25.6287 34.3909C25.3559 34.6807 24.9807 34.8341 24.5715 34.8341C24.1793 34.8341 23.8041 34.6807 23.5313 34.3909C22.9515 33.8114 22.9515 32.8568 23.5313 32.2772L32.2962 23.5154C32.876 22.9376 33.8139 22.9376 34.3937 23.5154C34.9735 24.095 34.9735 25.0513 34.3937 25.6309L25.6287 34.3909ZM33.3535 34.8342C32.5179 34.8342 31.8529 34.1694 31.8529 33.3341C31.8529 32.5176 32.5179 31.8511 33.3535 31.8511C34.172 31.8511 34.8371 32.5176 34.8371 33.3341C34.8371 34.1694 34.172 34.8342 33.3535 34.8342ZM26.0719 24.5723C26.0719 23.7541 25.4069 23.0893 24.5884 23.0893C23.7699 23.0893 23.0878 23.7541 23.0878 24.5723C23.0878 25.4093 23.7699 26.0724 24.5884 26.0724C25.4069 26.0724 26.0719 25.4093 26.0719 24.5723Z" fill="url(#paint3_linear_1052_2487)"/>
<path d="M25.6287 34.3909L25.4955 34.2576L25.4915 34.2618L25.6287 34.3909ZM23.5313 34.3909L23.6685 34.2617L23.6645 34.2577L23.5313 34.3909ZM23.5313 32.2772L23.3981 32.1439L23.5313 32.2772ZM32.2962 23.5154L32.1632 23.382L32.163 23.3822L32.2962 23.5154ZM34.3937 23.5154L34.5269 23.3822L34.5267 23.382L34.3937 23.5154ZM34.3937 25.6309L34.5269 25.7642L34.5269 25.7641L34.3937 25.6309ZM24.5715 35.0226C25.029 35.0226 25.4551 34.8503 25.7659 34.5201L25.4915 34.2618C25.2567 34.5112 24.9324 34.6457 24.5715 34.6457V35.0226ZM23.3941 34.5201C23.7042 34.8495 24.1298 35.0226 24.5715 35.0226V34.6457C24.2288 34.6457 23.9041 34.512 23.6685 34.2618L23.3941 34.5201ZM23.3981 32.1439C22.7446 32.7971 22.7446 33.871 23.3981 34.5242L23.6645 34.2577C23.1583 33.7517 23.1583 32.9165 23.6645 32.4105L23.3981 32.1439ZM32.163 23.3822L23.3981 32.1439L23.6645 32.4105L32.4294 23.6487L32.163 23.3822ZM34.5267 23.382C33.8734 22.7308 32.8165 22.7308 32.1632 23.382L32.4293 23.6489C32.9355 23.1443 33.7544 23.1443 34.2606 23.6489L34.5267 23.382ZM34.5269 25.7641C35.1803 25.111 35.1803 24.0353 34.5269 23.3822L34.2605 23.6487C34.7666 24.1547 34.7666 24.9916 34.2605 25.4976L34.5269 25.7641ZM25.7619 34.5242L34.5269 25.7642L34.2605 25.4976L25.4955 34.2577L25.7619 34.5242ZM31.6645 33.3341C31.6645 34.2736 32.4139 35.0227 33.3535 35.0227V34.6458C32.6219 34.6458 32.0413 34.0653 32.0413 33.3341H31.6645ZM33.3535 31.6627C32.4152 31.6627 31.6645 32.4122 31.6645 33.3341H32.0413C32.0413 32.623 32.6207 32.0396 33.3535 32.0396V31.6627ZM35.0255 33.3341C35.0255 32.4136 34.2762 31.6627 33.3535 31.6627V32.0396C34.0679 32.0396 34.6486 32.6216 34.6486 33.3341H35.0255ZM33.3535 35.0227C34.2774 35.0227 35.0255 34.2721 35.0255 33.3341H34.6486C34.6486 34.0667 34.0666 34.6458 33.3535 34.6458V35.0227ZM24.5884 23.2777C25.3029 23.2777 25.8835 23.8582 25.8835 24.5723H26.2604C26.2604 23.6499 25.5109 22.9008 24.5884 22.9008V23.2777ZM23.2762 24.5723C23.2762 23.861 23.8711 23.2777 24.5884 23.2777V22.9008C23.6687 22.9008 22.8993 23.6472 22.8993 24.5723H23.2762ZM24.5884 25.8839C23.8723 25.8839 23.2762 25.3036 23.2762 24.5723H22.8993C22.8993 25.5149 23.6674 26.2608 24.5884 26.2608V25.8839ZM25.8835 24.5723C25.8835 25.3064 25.3016 25.8839 24.5884 25.8839V26.2608C25.5122 26.2608 26.2604 25.5121 26.2604 24.5723H25.8835Z" fill="url(#paint4_linear_1052_2487)" mask="url(#path-5-inside-2_1052_2487)"/>
</g>
</g>
</g>
<defs>
<filter id="filter0_f_1052_2487" x="0.925055" y="0.92304" width="44.2427" height="44.2374" filterUnits="userSpaceOnUse" color-interpolation-filters="sRGB">
<feFlood flood-opacity="0" result="BackgroundImageFix"/>
<feBlend mode="normal" in="SourceGraphic" in2="BackgroundImageFix" result="shape"/>
<feGaussianBlur stdDeviation="5.41763" result="effect1_foregroundBlur_1052_2487"/>
</filter>
<filter id="filter1_b_1052_2487" x="0.136452" y="0.137489" width="57.6474" height="57.6396" filterUnits="userSpaceOnUse" color-interpolation-filters="sRGB">
<feFlood flood-opacity="0" result="BackgroundImageFix"/>
<feGaussianBlur in="BackgroundImageFix" stdDeviation="5.65318"/>
<feComposite in2="SourceAlpha" operator="in" result="effect1_backgroundBlur_1052_2487"/>
<feBlend mode="normal" in="SourceGraphic" in2="effect1_backgroundBlur_1052_2487" result="shape"/>
</filter>
<filter id="filter2_bd_1052_2487" x="16.0213" y="16.0156" width="25.8823" height="25.8849" filterUnits="userSpaceOnUse" color-interpolation-filters="sRGB">
<feFlood flood-opacity="0" result="BackgroundImageFix"/>
<feGaussianBlur in="BackgroundImageFix" stdDeviation="3.53324"/>
<feComposite in2="SourceAlpha" operator="in" result="effect1_backgroundBlur_1052_2487"/>
<feColorMatrix in="SourceAlpha" type="matrix" values="0 0 0 0 0 0 0 0 0 0 0 0 0 0 0 0 0 0 127 0" result="hardAlpha"/>
<feOffset dx="2.35549" dy="2.35549"/>
<feGaussianBlur stdDeviation="2.35549"/>
<feColorMatrix type="matrix" values="0 0 0 0 0.239216 0 0 0 0 0.0117647 0 0 0 0 0.717647 0 0 0 0.5 0"/>
<feBlend mode="normal" in2="effect1_backgroundBlur_1052_2487" result="effect2_dropShadow_1052_2487"/>
<feBlend mode="normal" in="SourceGraphic" in2="effect2_dropShadow_1052_2487" result="shape"/>
</filter>
<radialGradient id="paint0_radial_1052_2487" cx="0" cy="0" r="1" gradientUnits="userSpaceOnUse" gradientTransform="translate(23.0468 23.0418) rotate(90) scale(17.0423 17.0463)">
<stop stop-color="#3D03B7" stop-opacity="0"/>
<stop offset="1" stop-color="#3D03B7"/>
</radialGradient>
<radialGradient id="paint1_radial_1052_2487" cx="0" cy="0" r="1" gradientUnits="userSpaceOnUse" gradientTransform="translate(23.0464 23.0418) rotate(90) scale(11.2835 11.2861)">
<stop stop-color="#3D03B7" stop-opacity="0"/>
<stop offset="1" stop-color="#3D03B7"/>
</radialGradient>
<linearGradient id="paint2_linear_1052_2487" x1="11.8144" y1="11.6833" x2="39.0583" y2="42.838" gradientUnits="userSpaceOnUse">
<stop stop-color="white" stop-opacity="0.4"/>
<stop offset="1" stop-color="white" stop-opacity="0"/>
</linearGradient>
<linearGradient id="paint3_linear_1052_2487" x1="34.0041" y1="25.2042" x2="20.9164" y2="25.6309" gradientUnits="userSpaceOnUse">
<stop stop-color="white"/>
<stop offset="1" stop-color="white" stop-opacity="0.2"/>
</linearGradient>
<linearGradient id="paint4_linear_1052_2487" x1="24.9581" y1="24.4512" x2="32.4551" y2="33.7342" gradientUnits="userSpaceOnUse">
<stop stop-color="white" stop-opacity="0.25"/>
<stop offset="1" stop-color="white" stop-opacity="0"/>
</linearGradient>
</defs>
</svg>
