<svg width="48" height="45" viewBox="0 0 48 45" fill="none" xmlns="http://www.w3.org/2000/svg">
<g id="Shield">
<g id="Bg">
<path id="Fill 1" d="M23.6302 29.1357C23.4844 29.2199 23.3194 29.2708 23.1487 29.279L17.6483 29.5446C16.0872 29.6193 14.7443 29.467 13.5414 29.0808C10.9093 28.2368 8.70053 26.478 7.32348 24.1258L2.78818 16.3854C2.26456 15.4921 2.38195 14.3513 3.07705 13.5458L9.30452 6.35152C9.67204 5.92043 10.1864 5.62042 10.7485 5.50714L20.0693 3.6022C21.1118 3.38758 22.1647 3.84514 22.6864 4.73791L27.2251 12.4841C28.6013 14.8322 29.0562 17.6158 28.5072 20.3224C28.2551 21.5639 27.7299 22.8086 26.9031 24.1279L23.9894 28.786C23.8994 28.9313 23.7753 29.0504 23.6302 29.1357Z" fill="url(#paint0_radial_1052_2508)"/>
<g id="Fill 2" filter="url(#filter0_f_1052_2508)">
<path d="M21.1978 24.5239C21.0989 24.581 20.9887 24.6183 20.8763 24.6297L17.2544 24.9976C16.2264 25.1016 15.3503 25.0581 14.5747 24.8659C12.8777 24.4461 11.4928 23.449 10.6761 22.0568L7.98614 17.4756C7.67556 16.947 7.79514 16.2425 8.2816 15.7223L12.6391 11.0754C12.8965 10.7972 13.2454 10.5939 13.6187 10.5034L19.8105 8.98725C20.5031 8.81671 21.1775 9.05828 21.4868 9.58672L24.1788 14.1713C24.9951 15.561 25.1901 17.2523 24.7288 18.9337C24.517 19.705 24.1257 20.4884 23.5336 21.3288L21.4467 24.2959C21.3822 24.3884 21.2963 24.4661 21.1978 24.5239Z" fill="#3D03B7" fill-opacity="0.5"/>
</g>
</g>
<g id="Icon">
<g id="Fill 1_2" filter="url(#filter1_b_1052_2508)">
<mask id="path-3-outside-1_1052_2508" maskUnits="userSpaceOnUse" x="10.169" y="3.44799" width="38.3928" height="42.5746" fill="black">
<rect fill="white" x="10.169" y="3.44799" width="38.3928" height="42.5746"/>
<path d="M26.6289 42.6876C26.4076 42.6536 26.1942 42.5687 26.0104 42.4346L20.0876 38.1138C18.4072 36.8868 17.1421 35.6052 16.2169 34.1966C14.1918 31.1156 13.3677 27.4337 13.9001 23.8277L15.6482 11.9583C15.8497 10.5884 16.9219 9.49591 18.3136 9.23638L30.763 6.93398C31.5032 6.7913 32.2863 6.90815 32.9633 7.25981L44.2121 13.0634C45.4716 13.7109 46.1818 15.0685 45.9788 16.4364L44.2293 28.3145C43.6995 31.9156 41.8517 35.2009 39.0275 37.5666C37.7318 38.6516 36.1502 39.5115 34.194 40.1972L27.2926 42.6228C27.0783 42.6993 26.8505 42.7199 26.6289 42.6876Z"/>
</mask>
<path d="M26.6289 42.6876C26.4076 42.6536 26.1942 42.5687 26.0104 42.4346L20.0876 38.1138C18.4072 36.8868 17.1421 35.6052 16.2169 34.1966C14.1918 31.1156 13.3677 27.4337 13.9001 23.8277L15.6482 11.9583C15.8497 10.5884 16.9219 9.49591 18.3136 9.23638L30.763 6.93398C31.5032 6.7913 32.2863 6.90815 32.9633 7.25981L44.2121 13.0634C45.4716 13.7109 46.1818 15.0685 45.9788 16.4364L44.2293 28.3145C43.6995 31.9156 41.8517 35.2009 39.0275 37.5666C37.7318 38.6516 36.1502 39.5115 34.194 40.1972L27.2926 42.6228C27.0783 42.6993 26.8505 42.7199 26.6289 42.6876Z" fill="#3D03B7" fill-opacity="0.35"/>
<path d="M26.5573 43.1532C26.8145 43.1928 27.055 43.0164 27.0945 42.7592C27.1341 42.502 26.9577 42.2615 26.7005 42.222L26.5573 43.1532ZM26.0104 42.4346L26.2881 42.054L26.288 42.054L26.0104 42.4346ZM20.0876 38.1138L19.8098 38.4943L19.81 38.4944L20.0876 38.1138ZM16.2169 34.1966L16.6107 33.938L16.6106 33.9378L16.2169 34.1966ZM13.9001 23.8277L14.3662 23.8965L14.3662 23.8963L13.9001 23.8277ZM15.6482 11.9583L16.1143 12.027L16.1143 12.0269L15.6482 11.9583ZM18.3136 9.23638L18.2279 8.77314L18.2272 8.77327L18.3136 9.23638ZM30.763 6.93398L30.8487 7.39723L30.8522 7.39656L30.763 6.93398ZM32.9633 7.25981L32.7461 7.67788L32.7473 7.67847L32.9633 7.25981ZM44.2121 13.0634L43.9961 13.482L43.9967 13.4823L44.2121 13.0634ZM45.9788 16.4364L45.5128 16.3673L45.5127 16.3678L45.9788 16.4364ZM44.2293 28.3145L43.7633 28.2459L43.7633 28.2459L44.2293 28.3145ZM39.0275 37.5666L39.33 37.9278L39.3301 37.9277L39.0275 37.5666ZM34.194 40.1972L34.0382 39.7526L34.0378 39.7528L34.194 40.1972ZM27.2926 42.6228L27.1364 42.1784L27.1344 42.1791L27.2926 42.6228ZM26.6968 42.2214C26.4394 42.1839 26.2003 42.3622 26.1627 42.6197C26.1252 42.8771 26.3035 43.1162 26.561 43.1538L26.6968 42.2214ZM26.7005 42.222C26.55 42.1988 26.408 42.1415 26.2881 42.054L25.7327 42.8152C25.9804 42.9959 26.2653 43.1083 26.5573 43.1532L26.7005 42.222ZM26.288 42.054L20.3653 37.7333L19.81 38.4944L25.7327 42.8152L26.288 42.054ZM20.3655 37.7334C18.7205 36.5323 17.4986 35.2899 16.6107 33.938L15.8232 34.4552C16.7855 35.9205 18.0938 37.2413 19.8098 38.4943L20.3655 37.7334ZM16.6106 33.9378C14.648 30.952 13.8508 27.3865 14.3662 23.8965L13.4341 23.7588C12.8845 27.4809 13.7355 31.2791 15.8233 34.4553L16.6106 33.9378ZM14.3662 23.8963L16.1143 12.027L15.1822 11.8897L13.4341 23.759L14.3662 23.8963ZM16.1143 12.0269C16.2855 10.8629 17.1993 9.9234 18.3999 9.6995L18.2272 8.77327C16.6446 9.06841 15.4139 10.3139 15.1821 11.8898L16.1143 12.0269ZM18.3992 9.69963L30.8487 7.39722L30.6773 6.47073L18.2279 8.77314L18.3992 9.69963ZM30.8522 7.39656C31.4862 7.27435 32.1615 7.37422 32.7461 7.67787L33.1804 6.84174C32.411 6.44209 31.5202 6.30826 30.6739 6.47139L30.8522 7.39656ZM32.7473 7.67847L43.9961 13.482L44.4281 12.6447L33.1793 6.84115L32.7473 7.67847ZM43.9967 13.4823C45.0823 14.0405 45.6853 15.2051 45.5128 16.3673L46.4448 16.5056C46.6783 14.932 45.8609 13.3813 44.4275 12.6444L43.9967 13.4823ZM45.5127 16.3678L43.7633 28.2459L44.6954 28.3832L46.4448 16.5051L45.5127 16.3678ZM43.7633 28.2459C43.2504 31.7311 41.4619 34.9129 38.725 37.2054L39.3301 37.9277C42.2415 35.4889 44.1485 32.1 44.6954 28.3831L43.7633 28.2459ZM38.7251 37.2054C37.4815 38.2467 35.9528 39.0815 34.0382 39.7526L34.3498 40.6418C36.3476 39.9415 37.9821 39.0565 39.33 37.9278L38.7251 37.2054ZM34.0378 39.7528L27.1364 42.1784L27.4488 43.0673L34.3502 40.6417L34.0378 39.7528ZM27.1344 42.1791C26.9946 42.229 26.8446 42.2429 26.6968 42.2214L26.561 43.1538C26.8563 43.1968 27.162 43.1696 27.4509 43.0666L27.1344 42.1791Z" fill="url(#paint1_linear_1052_2508)" mask="url(#path-3-outside-1_1052_2508)"/>
</g>
<g id="Fill 4" filter="url(#filter2_bd_1052_2508)">
<path d="M27.368 28.7548C27.0223 28.7035 26.6961 28.5259 26.4692 28.2292L23.5505 24.4081C23.1003 23.8151 23.2226 22.9836 23.8253 22.549C24.4284 22.1126 25.2837 22.2387 25.736 22.8303L27.8363 25.5784L34.7665 20.5707C35.3713 20.1345 36.2266 20.2607 36.6771 20.852C37.1291 21.4452 37.0065 22.2784 36.404 22.7113L28.3798 28.5104C28.0772 28.7294 27.7137 28.8062 27.368 28.7548Z" fill="url(#paint2_linear_1052_2508)"/>
<path d="M23.8529 22.5872L23.853 22.5872C24.4353 22.1657 25.2618 22.2876 25.6986 22.8589C25.6986 22.8589 25.6986 22.8589 25.6986 22.8589L27.7988 25.607L27.8267 25.6435L27.8639 25.6166L34.794 20.6089C35.3782 20.1876 36.2047 20.3096 36.6396 20.8805C37.0757 21.4529 36.9573 22.2558 36.3765 22.6731L36.3764 22.6731L28.3522 28.4723L28.3522 28.4723C28.0601 28.6836 27.7091 28.7579 27.3749 28.7082C27.0406 28.6586 26.7256 28.487 26.5066 28.2005L23.588 24.3796C23.588 24.3796 23.588 24.3795 23.588 24.3795C23.1537 23.8075 23.2718 23.0063 23.8529 22.5872Z" stroke="url(#paint3_linear_1052_2508)" stroke-opacity="0.5" stroke-width="0.0942197"/>
</g>
</g>
</g>
<defs>
<filter id="filter0_f_1052_2508" x="0.277247" y="1.39553" width="32.2338" height="31.1948" filterUnits="userSpaceOnUse" color-interpolation-filters="sRGB">
<feFlood flood-opacity="0" result="BackgroundImageFix"/>
<feBlend mode="normal" in="SourceGraphic" in2="BackgroundImageFix" result="shape"/>
<feGaussianBlur stdDeviation="3.76879" result="effect1_foregroundBlur_1052_2508"/>
</filter>
<filter id="filter1_b_1052_2508" x="1.96476" y="-4.90304" width="55.8259" height="59.3827" filterUnits="userSpaceOnUse" color-interpolation-filters="sRGB">
<feFlood flood-opacity="0" result="BackgroundImageFix"/>
<feGaussianBlur in="BackgroundImageFix" stdDeviation="5.65318"/>
<feComposite in2="SourceAlpha" operator="in" result="effect1_backgroundBlur_1052_2508"/>
<feBlend mode="normal" in="SourceGraphic" in2="effect1_backgroundBlur_1052_2508" result="shape"/>
</filter>
<filter id="filter2_bd_1052_2508" x="16.2126" y="13.2446" width="27.8037" height="22.5919" filterUnits="userSpaceOnUse" color-interpolation-filters="sRGB">
<feFlood flood-opacity="0" result="BackgroundImageFix"/>
<feGaussianBlur in="BackgroundImageFix" stdDeviation="3.53324"/>
<feComposite in2="SourceAlpha" operator="in" result="effect1_backgroundBlur_1052_2508"/>
<feColorMatrix in="SourceAlpha" type="matrix" values="0 0 0 0 0 0 0 0 0 0 0 0 0 0 0 0 0 0 127 0" result="hardAlpha"/>
<feOffset dx="2.35549" dy="2.35549"/>
<feGaussianBlur stdDeviation="2.35549"/>
<feColorMatrix type="matrix" values="0 0 0 0 0.239216 0 0 0 0 0.0117647 0 0 0 0 0.717647 0 0 0 0.5 0"/>
<feBlend mode="normal" in2="effect1_backgroundBlur_1052_2508" result="effect2_dropShadow_1052_2508"/>
<feBlend mode="normal" in="SourceGraphic" in2="effect2_dropShadow_1052_2508" result="shape"/>
</filter>
<radialGradient id="paint0_radial_1052_2508" cx="0" cy="0" r="1" gradientUnits="userSpaceOnUse" gradientTransform="translate(20.0001 19) rotate(-178.21) scale(16.0078 13.6841)">
<stop stop-color="#3D03B7" stop-opacity="0"/>
<stop offset="1" stop-color="#3D03B7"/>
</radialGradient>
<linearGradient id="paint1_linear_1052_2508" x1="20.977" y1="9.49578" x2="40.4969" y2="37.597" gradientUnits="userSpaceOnUse">
<stop stop-color="white" stop-opacity="0.25"/>
<stop offset="1" stop-color="white" stop-opacity="0"/>
</linearGradient>
<linearGradient id="paint2_linear_1052_2508" x1="35.9451" y1="22.1071" x2="21.2765" y2="20.5213" gradientUnits="userSpaceOnUse">
<stop stop-color="white"/>
<stop offset="1" stop-color="white" stop-opacity="0.2"/>
</linearGradient>
<linearGradient id="paint3_linear_1052_2508" x1="24.9664" y1="21.9244" x2="36.069" y2="23.7185" gradientUnits="userSpaceOnUse">
<stop stop-color="white"/>
<stop offset="1" stop-color="white" stop-opacity="0"/>
</linearGradient>
</defs>
</svg>
