<svg width="182" height="60" viewBox="0 0 182 60" fill="none" xmlns="http://www.w3.org/2000/svg">
<g id="&#208;&#155;&#208;&#190;&#208;&#179;&#208;&#190;&#209;&#130;&#208;&#184;&#208;&#191; &#208;&#190;&#209;&#129;&#208;&#189;&#208;&#190;&#208;&#178;&#208;&#189;&#208;&#190;&#208;&#185;">
<path id="Vector" d="M68.9262 7.4187V26.9783H73.4453V11.1823H81.0104V26.9783H85.5295V7.4187H68.9262Z" fill="white"/>
<path id="Vector_2" d="M102.555 9.94799C102.009 9.03796 101.159 8.35081 100.155 8.00845C98.8781 7.58059 97.5355 7.38096 96.1891 7.41869H88.3506V26.9782H92.7907V20.1199H96.3956C98.074 20.1199 99.4255 19.8433 100.45 19.29C101.428 18.7905 102.214 17.98 102.682 16.9857C103.159 15.913 103.393 14.7484 103.369 13.5747C103.36 12.0568 103.089 10.8478 102.555 9.94799ZM98.4304 15.3927C98.1854 15.8408 97.7909 16.1883 97.3158 16.3746C96.6967 16.6006 96.0397 16.7038 95.3812 16.6786H92.8059V10.9573H95.8884C96.2368 10.9578 96.5841 10.9965 96.924 11.0728C97.2593 11.1479 97.5775 11.285 97.8625 11.4771C98.1588 11.6851 98.3929 11.9699 98.5397 12.301C98.7247 12.7336 98.8119 13.2018 98.7948 13.672C98.8194 14.2671 98.6941 14.8588 98.4304 15.3927Z" fill="white"/>
<path id="Vector_3" d="M118.405 7.4187C117.51 8.75023 116.653 10.02 115.833 11.2279L113.403 14.809L110.238 19.4846H109.914V7.4187H105.516V26.9783H109.294C110.051 25.8595 110.836 24.7033 111.648 23.5096C112.46 22.3159 113.351 21.0076 114.323 19.5849L117.518 14.9002H117.822V26.9783H122.222V7.4187H118.405Z" fill="white"/>
<path id="Vector_4" d="M139.819 19.1045C139.492 18.4852 139.001 17.9677 138.401 17.6088C137.756 17.229 137.055 16.9559 136.323 16.8002V16.4567C136.981 16.2927 137.6 16.0015 138.145 15.5994C138.686 15.2017 139.123 14.6805 139.421 14.0794C139.745 13.4048 139.904 12.663 139.886 11.9149C139.895 11.2844 139.777 10.6586 139.536 10.0756C139.285 9.51368 138.888 9.02964 138.385 8.67418C137.737 8.22816 137.006 7.91793 136.235 7.76217C135.138 7.5271 134.017 7.41897 132.894 7.43993H124.998V26.9995H131.838C133.232 27.0271 134.625 26.8956 135.989 26.6073C136.923 26.4186 137.807 26.0377 138.586 25.4886C139.187 25.0485 139.652 24.448 139.928 23.7558C140.207 23.0336 140.347 22.2652 140.341 21.4909C140.366 20.6645 140.187 19.8448 139.819 19.1045ZM132.53 10.7779C133.443 10.7779 134.124 10.9724 134.574 11.3616C134.806 11.5807 134.987 11.8487 135.103 12.1463C135.219 12.4439 135.268 12.7636 135.245 13.0822C135.253 13.529 135.142 13.9698 134.923 14.359C134.689 14.7395 134.348 15.042 133.942 15.2285C133.421 15.4609 132.854 15.5711 132.284 15.5507H129.408V10.7779H132.53ZM135.312 22.4638C135.041 22.8561 134.65 23.1496 134.197 23.2998C133.574 23.517 132.917 23.62 132.257 23.6038H129.408V18.7063H132.475C133.508 18.7063 134.299 18.9008 134.847 19.29C135.125 19.4977 135.346 19.7719 135.489 20.0875C135.633 20.4031 135.695 20.7498 135.67 21.0957C135.688 21.5775 135.562 22.0537 135.309 22.4638H135.312Z" fill="white"/>
<path id="Vector_5" d="M147.177 23.2877V18.831H155.301V15.4018H147.177V11.1063H155.742V7.4187H142.765V26.9783H155.863V23.2877H147.177Z" fill="white"/>
<path id="Vector_6" d="M174.471 7.4187H158.18V11.3555H164.084V26.9783H168.579V11.3555H174.471V7.4187Z" fill="white"/>
<path id="Vector_7" d="M178.99 27.3431C178.516 27.3559 178.048 27.2425 177.632 27.0147C177.263 26.8031 176.96 26.4939 176.755 26.121C176.547 25.7293 176.442 25.2908 176.451 24.8472C176.44 24.5227 176.495 24.1994 176.614 23.8972C176.733 23.595 176.912 23.3203 177.14 23.0901C177.39 22.8548 177.685 22.6726 178.007 22.5545C178.329 22.4364 178.672 22.3849 179.014 22.403C179.485 22.3867 179.953 22.4913 180.372 22.707C180.741 22.9065 181.045 23.2071 181.249 23.5734C181.458 23.9607 181.562 24.3953 181.553 24.835C181.568 25.1725 181.512 25.5094 181.387 25.8235C181.263 26.1376 181.074 26.4218 180.832 26.6575C180.59 26.8932 180.301 27.0751 179.984 27.1911C179.668 27.3072 179.33 27.3548 178.993 27.3309L178.99 27.3431ZM177.368 19.7247C177.293 17.5481 177.205 15.3917 177.104 13.2556C177.001 11.1275 176.91 9.53152 176.8 7.4187H181.24C181.134 9.54672 181.064 11.0272 180.961 13.1796C180.858 15.3319 180.767 17.4994 180.688 19.6791L177.368 19.7247Z" fill="white"/>
<path id="Vector_8" d="M81.9033 43.896C81.4494 43.1147 80.7798 42.4813 79.9748 42.072C78.7995 41.4547 77.5614 40.9655 76.2818 40.6127C75.59 40.4148 74.9114 40.1732 74.2501 39.8892C73.8043 39.7132 73.4052 39.4365 73.0839 39.0806C72.8282 38.7627 72.6946 38.3637 72.7073 37.9558C72.6924 37.5387 72.8356 37.1315 73.1082 36.8157C73.3984 36.4984 73.7688 36.2652 74.1802 36.1409C74.6715 35.9868 75.184 35.9119 75.6987 35.9189C76.2546 35.9254 76.8082 35.9895 77.3509 36.1105C77.9831 36.2468 78.6028 36.4359 79.2034 36.6759C79.8381 36.922 80.4482 37.2273 81.0256 37.5879L81.3475 33.6024C80.9304 33.4006 80.5002 33.2269 80.0599 33.0826C79.5679 32.9184 79.0303 32.7786 78.4533 32.6418C77.8763 32.505 77.281 32.4107 76.6645 32.3378C76.06 32.2622 75.4515 32.2237 74.8423 32.2223C73.5196 32.1768 72.2036 32.4292 70.9914 32.961C70.0399 33.3947 69.2439 34.1098 68.7106 35.01C68.1955 35.9387 67.9366 36.988 67.9605 38.05C67.9192 39.0292 68.1505 40.0006 68.6286 40.8559C69.1033 41.6103 69.7686 42.2259 70.5571 42.6404C71.5221 43.1553 72.5405 43.5631 73.5941 43.8565C74.3455 44.0672 75.0855 44.3168 75.8111 44.6043C76.3428 44.7997 76.8302 45.0994 77.2446 45.4859C77.4099 45.6513 77.5396 45.8489 77.6258 46.0664C77.712 46.2838 77.7528 46.5167 77.7457 46.7506C77.7617 47.1884 77.6254 47.6182 77.36 47.9666C77.0726 48.3039 76.694 48.5509 76.2697 48.6779C75.7405 48.8403 75.1891 48.9182 74.6358 48.909C73.9696 48.9053 73.3053 48.836 72.6526 48.7023C71.951 48.5582 71.2607 48.3632 70.5875 48.1186C69.9014 47.8651 69.2355 47.5602 68.5952 47.2066L68.2702 51.1586C68.8586 51.4247 69.4681 51.6413 70.0924 51.8061C70.881 52.0283 71.6822 52.2029 72.4917 52.329C73.3181 52.4629 74.1539 52.531 74.9911 52.5327C76.7384 52.5327 78.1648 52.2854 79.2702 51.7909C80.281 51.3736 81.1322 50.644 81.6998 49.7085C82.2365 48.7518 82.5061 47.6681 82.4803 46.5712C82.5095 45.6456 82.3114 44.727 81.9033 43.896Z" fill="#00C395"/>
<path id="Vector_9" d="M99.7548 32.6205H83.4674V36.5543H89.3652V52.18H93.8691V36.5543H99.7548V32.6205Z" fill="#00C395"/>
<path id="Vector_10" d="M110.324 48.8299C111.145 48.8493 111.959 48.6721 112.698 48.3131C113.361 47.9765 113.937 47.4905 114.381 46.8934C114.839 46.2744 115.181 45.577 115.389 44.8353C115.613 44.0442 115.726 43.2256 115.723 42.4033C115.73 41.5457 115.607 40.6919 115.359 39.871C115.138 39.1274 114.781 38.4315 114.305 37.819C113.852 37.239 113.274 36.7693 112.613 36.4449C111.884 36.1157 111.093 35.9468 110.293 35.9494C109.493 35.952 108.703 36.1261 107.976 36.4601C107.308 36.7912 106.725 37.2718 106.272 37.8646C105.802 38.4822 105.449 39.1808 105.23 39.9257C104.991 40.7295 104.872 41.5645 104.878 42.4033C104.874 43.236 104.987 44.0651 105.215 44.8657C105.427 45.6085 105.773 46.3061 106.236 46.9239C106.685 47.5192 107.268 48.0012 107.936 48.3314C108.683 48.6813 109.5 48.852 110.324 48.8299ZM110.396 52.5449C108.831 52.582 107.274 52.305 105.817 51.7301C104.6 51.239 103.512 50.4745 102.637 49.4957C101.805 48.5507 101.175 47.4459 100.784 46.249C100.376 45.0103 100.171 43.7137 100.177 42.4094C100.149 40.6224 100.536 38.8534 101.307 37.2414C102.048 35.714 103.22 34.4373 104.678 33.569C106.176 32.6631 108.041 32.2101 110.272 32.2101C111.794 32.1772 113.308 32.4447 114.727 32.9975C115.934 33.4803 117.017 34.2271 117.898 35.1833C118.745 36.1216 119.39 37.2248 119.793 38.4239C120.219 39.6975 120.431 41.0329 120.422 42.376C120.454 44.1794 120.059 45.9649 119.27 47.5866C118.522 49.1092 117.342 50.3778 115.878 51.2346C114.388 52.1101 112.561 52.5469 110.396 52.5449Z" fill="#00C395"/>
<path id="Vector_11" d="M138.331 50.4442C137.884 49.7876 137.42 49.1157 136.967 48.4287C136.515 47.7416 136.056 47.0941 135.646 46.4861L133.888 43.893C134.309 43.7821 134.716 43.624 135.102 43.4218C136.019 42.9569 136.764 42.2114 137.228 41.2937C137.685 40.3465 137.912 39.3052 137.893 38.2537C137.893 36.835 137.609 35.7122 137.04 34.8853C136.428 34.0323 135.544 33.4127 134.534 33.1282C133.222 32.7477 131.859 32.5704 130.492 32.6023H122.991V52.1618H127.413V44.9691H129.763L131.631 47.9088L132.964 49.97C133.42 50.6753 133.891 51.4109 134.383 52.1801H139.506C139.17 51.6754 138.778 51.0968 138.331 50.4442ZM127.413 36.1561H130.349C130.696 36.1559 131.042 36.1895 131.382 36.2564C131.715 36.3222 132.031 36.4545 132.311 36.6455C132.602 36.8486 132.832 37.1257 132.979 37.4481C133.162 37.8748 133.247 38.337 133.229 38.8009C133.261 39.4127 133.127 40.0218 132.843 40.5641C132.586 40.9946 132.183 41.3183 131.707 41.4761C131.113 41.6693 130.491 41.7598 129.867 41.7437H127.413V36.1561Z" fill="#00C395"/>
<path id="Vector_12" d="M145.738 48.4955V44.0358H153.865V40.6006H145.738V36.302H154.302V32.6205H141.325V52.18H154.418V48.4955H145.738Z" fill="#00C395"/>
<path id="Vector_13" fill-rule="evenodd" clip-rule="evenodd" d="M50.4917 37.98C49.0035 37.98 47.7948 39.6733 47.7948 41.7618C47.7948 43.8503 49.0096 45.5467 50.4917 45.5467C51.9737 45.5467 53.1885 43.8503 53.1885 41.7618C53.1885 39.6733 51.9798 37.98 50.4917 37.98ZM40.5698 37.9983C39.0817 37.9983 37.873 39.6916 37.873 41.7801C37.873 43.8686 39.0878 45.5649 40.5698 45.5649C42.0519 45.5649 43.2697 43.8686 43.2697 41.7801C43.2697 39.6916 42.0579 37.9983 40.5698 37.9983ZM49.535 49.2221C49.535 50.7938 47.8191 52.0706 45.7023 52.0706C43.5856 52.0706 41.8727 50.7938 41.8727 49.2221H49.535ZM35.7076 0.162073C38.3255 0.225913 41.2774 1.98609 44.0988 8.56775C47.1631 15.7149 48.6543 19.5119 49.5381 26.6559C51.0778 21.1231 50.1455 13.9486 49.5381 7.19974C49.3832 5.4882 50.5858 3.5517 52.2471 2.72178C54.7374 1.50577 57.8503 2.63058 59.1319 5.51252C60.2404 8.00535 60.4075 13.1126 60.3892 15.7544C60.3589 20.9984 60.3649 33.4139 60.3892 43.7591C60.3892 45.886 59.9707 47.9921 59.1575 49.9571C58.3443 51.9221 57.1523 53.7075 55.6497 55.2113C54.1471 56.7151 52.3633 57.9079 50.4001 58.7215C48.437 59.5352 46.3329 59.9538 44.2081 59.9534C33.2112 59.9534 19.7269 59.9534 14.3545 59.9534C13.6074 59.9534 10.8407 60.0142 9.87491 59.695C8.85062 59.3534 7.95214 58.7123 7.29547 57.8545C6.6388 56.9966 6.2541 55.9615 6.19104 54.8826C6.15459 53.5936 6.5494 51.0856 9.14907 49.7936C10.7435 49.0032 15.4296 48.7448 18.4818 48.7053C24.9657 48.6171 27.7871 49.2251 27.7871 49.2251C21.7769 43.3183 12.4078 36.6941 5.00965 34.1131C2.46161 33.2254 1.02207 31.5656 0.906666 28.4647C0.788224 25.3122 3.315 23.2967 5.01268 22.7647C6.2573 22.3867 7.59173 22.4306 8.80893 22.8893C9.94173 23.3028 21.8164 28.6319 27.7932 34.3107C21.6342 24.7103 15.5359 19.369 6.19104 13.1612C2.78049 10.8995 1.6568 6.26949 4.34758 2.80386C6.106 0.526876 8.98811 -0.585775 13.1245 0.417435C14.9133 0.849119 17.7438 2.64882 19.6692 4.39683C26.1866 10.3158 34.1071 21.4423 38.6626 30.5897C37.2504 21.7736 34.6841 16.5418 30.6085 9.24872C29.178 6.69206 29.664 4.36339 30.3048 3.16866C31.1703 1.59393 32.8741 0.0830319 35.7076 0.162073Z" fill="url(#paint0_linear_1052_4287)"/>
<path id="Vector_14" fill-rule="evenodd" clip-rule="evenodd" d="M50.4917 37.9801C49.0036 37.9801 47.7948 39.6734 47.7948 41.7619C47.7948 43.8504 49.0096 45.5467 50.4917 45.5467C51.9737 45.5467 53.1885 43.8504 53.1885 41.7619C53.1885 39.6734 51.9798 37.9801 50.4917 37.9801ZM40.5698 37.9983C39.0817 37.9983 37.873 39.6916 37.873 41.7801C37.873 43.8686 39.0878 45.565 40.5698 45.565C42.0519 45.565 43.2667 43.8686 43.2667 41.7801C43.2667 39.6916 42.061 37.9983 40.5698 37.9983ZM49.535 49.2221C49.535 50.7938 47.8191 52.0706 45.7023 52.0706C43.5856 52.0706 41.8727 50.7938 41.8727 49.2221H49.535Z" fill="white"/>
</g>
<defs>
<linearGradient id="paint0_linear_1052_4287" x1="56.2984" y1="54.533" x2="4.38993" y2="2.67939" gradientUnits="userSpaceOnUse">
<stop stop-color="#FF4AF4"/>
<stop offset="0.05" stop-color="#F64CF1"/>
<stop offset="0.13" stop-color="#DD52E8"/>
<stop offset="0.24" stop-color="#B45BDA"/>
<stop offset="0.32" stop-color="#9063CD"/>
<stop offset="0.53" stop-color="#4893B1"/>
<stop offset="0.65" stop-color="#26AAA4"/>
<stop offset="0.9" stop-color="#00C395"/>
</linearGradient>
</defs>
</svg>
