<svg width="1325" height="550" viewBox="0 0 1325 550" fill="none" xmlns="http://www.w3.org/2000/svg">
<path fill-rule="evenodd" clip-rule="evenodd" d="M1321.71 382.043C1320.26 444.634 1278.33 515.32 1120.56 582.97C949.49 656.402 858.966 691.817 687.751 713.067C820.211 749.927 991.426 727.522 1153.39 713.067C1175.57 712.599 1197.43 718.454 1216.4 729.948C1235.38 741.442 1250.69 758.098 1260.54 777.97C1289.46 837.525 1262.85 912.115 1193.88 942.76C1134.15 969.357 1012.25 973.404 948.044 972.97C822.525 972.97 525.357 972.97 277.789 972.97C175.167 972.703 76.8375 931.775 4.35402 859.156C-68.1295 786.538 -108.853 688.155 -108.891 585.572C-108.891 322.198 -108.891 -0.730347 -108.891 -129.381C-108.891 -147.306 -110.338 -213.511 -102.673 -236.639C-94.7264 -260.835 -79.7592 -282.12 -59.6759 -297.789C-39.5926 -313.457 -15.3008 -322.8 10.1095 -324.628C35.5197 -326.457 60.8998 -320.689 83.0214 -308.058C105.143 -295.427 123.006 -276.504 134.338 -253.696C153.282 -215.534 159.355 -103.362 160.368 -30.2191C162.537 125.03 147.931 192.535 147.931 192.535C289.213 47.9835 449.438 -178.385 511.185 -355.75C532.442 -416.606 572.065 -451.009 646.393 -453.9C720.721 -456.792 770.322 -396.08 782.758 -355.461C791.795 -325.646 790.727 -293.683 779.721 -264.537C769.888 -237.506 640.753 49.5734 504.967 192.824C734.893 45.2368 862.726 -100.76 1011.09 -324.671C1065.32 -406.343 1176.09 -433.229 1258.95 -368.759C1313.47 -326.406 1340.22 -257.599 1316.07 -158.581C1305.8 -115.938 1262.71 -47.8546 1220.92 -1.88711C1079.2 154.229 812.981 344.025 593.901 453.018C804.738 419.192 930.257 357.758 1104.8 260.185C1126.52 246.862 1151.25 239.228 1176.7 237.99C1202.15 236.752 1227.51 241.95 1250.42 253.103C1273.4 265.523 1292.33 284.274 1304.97 307.129C1317.6 329.984 1323.41 355.985 1321.71 382.043Z" fill="url(#paint0_radial_84_1565)"/>
<defs>
<radialGradient id="paint0_radial_84_1565" cx="0" cy="0" r="1" gradientUnits="userSpaceOnUse" gradientTransform="translate(128.5 635.5) rotate(-17.4453) scale(1254.19 1248.01)">
<stop offset="0.129686" stop-color="#3D03B7"/>
<stop offset="1" stop-color="#9063CD"/>
</radialGradient>
</defs>
</svg>
